<?xml version="1.0" standalone="no"?>
<!DOCTYPE svg PUBLIC "-//W3C//DTD SVG 20010904//EN"
 "http://www.w3.org/TR/2001/REC-SVG-20010904/DTD/svg10.dtd">
<svg version="1.0" xmlns="http://www.w3.org/2000/svg"
 width="825.000000pt" height="549.000000pt" viewBox="0 0 825.000000 549.000000"
 preserveAspectRatio="xMidYMid meet">
<metadata>
Created by potrace 1.10, written by Peter Selinger 2001-2011
</metadata>
<g transform="translate(0.000000,549.000000) scale(0.100000,-0.100000)"
fill="#0000ff" stroke="none">
<path d="M1 5038 c0 -249 3 -447 6 -440 2 6 13 12 24 12 11 0 22 6 25 13 5 14
67 17 80 4 8 -8 -36 -77 -50 -77 -4 0 -26 -14 -47 -31 l-39 -31 0 -101 0 -101
30 34 c24 28 29 41 25 68 -6 33 10 46 22 16 4 -10 13 -14 26 -10 12 3 27 0 33
-5 7 -6 38 -11 69 -11 41 -1 55 -4 55 -15 0 -16 -38 -52 -55 -53 -5 0 -28 -7
-52 -16 -30 -12 -45 -24 -52 -45 -9 -26 -14 -29 -55 -29 -49 0 -59 -13 -29
-35 17 -13 17 -14 0 -32 -15 -17 -17 -42 -17 -180 l0 -161 31 11 c27 11 32 10
49 -13 l18 -24 13 27 c15 34 39 20 31 -19 -4 -22 -9 -25 -33 -20 -16 3 -31 1
-34 -4 -10 -16 -22 -11 -28 11 -3 12 -10 18 -17 14 -6 -4 -9 -13 -6 -21 3 -8
-1 -17 -9 -20 -11 -5 -15 -24 -15 -80 0 -41 3 -74 8 -74 19 1 44 31 40 48 -3
10 1 27 8 37 20 27 34 8 37 -46 l2 -44 -37 -3 c-21 -2 -38 -7 -38 -11 0 -4 14
-22 32 -40 23 -23 28 -35 20 -43 -8 -8 -13 -7 -18 5 -11 29 -36 20 -32 -10 2
-21 8 -28 22 -26 11 1 26 -6 33 -15 12 -16 14 -16 27 1 19 24 32 21 53 -13 9
-16 21 -30 25 -30 14 0 19 21 8 35 -10 12 -7 13 20 5 18 -5 39 -15 48 -22 12
-10 16 -10 19 0 8 22 42 13 65 -18 28 -39 38 -38 38 5 0 40 12 45 34 13 10
-14 26 -21 47 -21 29 0 30 -2 25 -29 -3 -15 -3 -28 1 -28 11 0 53 51 53 65 0
24 44 1 50 -26 4 -16 13 -24 26 -24 12 0 28 -6 37 -13 13 -11 17 -10 27 7 13
25 23 26 44 6 21 -22 43 -18 61 9 20 31 11 77 -13 69 -10 -3 -25 -13 -34 -21
-16 -13 -20 -12 -37 9 l-19 24 29 12 c16 7 29 17 29 23 0 14 43 13 58 -2 10
-10 18 -6 37 17 13 17 24 38 25 48 0 28 25 14 28 -16 2 -15 12 -31 22 -37 11
-6 16 -17 13 -29 -6 -25 15 -38 24 -14 3 10 13 26 21 35 12 15 12 22 -4 57
-15 32 -24 41 -46 41 -17 0 -29 7 -33 19 -3 12 -12 18 -20 15 -7 -3 -27 2 -44
10 -16 9 -38 16 -47 16 -19 0 -64 45 -64 64 0 8 -7 16 -15 20 -10 3 -15 19
-15 43 l1 38 20 -28 c17 -22 24 -25 35 -16 11 9 19 8 35 -7 13 -12 37 -19 66
-19 29 -1 50 -7 57 -17 6 -8 21 -18 34 -22 12 -4 22 -11 22 -16 0 -11 -21 -24
-40 -25 -20 0 -26 -35 -6 -35 18 0 71 -48 80 -74 4 -11 12 -16 22 -12 9 3 29
-2 45 -11 27 -16 30 -16 45 -1 14 13 21 14 43 5 14 -6 29 -16 33 -22 5 -6 8
-3 8 6 0 9 6 19 13 22 17 6 57 -27 48 -41 -3 -6 -4 -49 0 -96 6 -73 11 -90 36
-123 16 -21 37 -50 46 -65 9 -15 26 -36 37 -46 31 -29 16 -49 -43 -57 -28 -4
-59 -13 -69 -19 -14 -8 -21 -8 -27 3 -6 10 -20 12 -47 8 -25 -4 -41 -2 -48 7
-6 7 -25 16 -41 19 -25 5 -33 2 -40 -16 -11 -25 26 -23 -713 -27 l-333 -1 2
-123 1 -123 64 2 c35 1 61 -1 59 -5 -2 -4 10 -20 27 -35 27 -25 39 -28 85 -26
66 3 80 -5 57 -30 -20 -22 -37 -24 -63 -7 -16 9 -23 6 -50 -21 -31 -31 -60
-38 -68 -15 -2 6 6 14 18 17 20 5 21 8 8 23 -12 15 -14 15 -27 -5 -8 -11 -22
-21 -32 -21 -10 0 -23 -7 -30 -15 -9 -11 -17 -12 -31 -4 -18 9 -19 6 -19 -47
0 -56 0 -56 28 -51 30 6 112 -11 112 -23 0 -14 -28 -19 -84 -13 l-56 6 0 -122
c0 -101 2 -121 15 -121 8 0 15 -4 15 -10 0 -5 -7 -10 -15 -10 -12 0 -14 -36
-15 -230 l0 -230 37 0 c21 0 78 7 128 15 50 8 116 15 149 15 32 0 102 7 155
15 53 8 157 16 231 18 80 2 144 8 157 15 13 7 62 12 120 12 54 0 114 4 132 10
25 7 39 6 49 -2 11 -10 16 -8 23 5 8 14 25 17 92 17 45 0 132 7 192 15 61 8
144 15 185 15 41 1 95 5 120 11 25 5 101 12 170 15 69 4 142 13 164 20 21 8
61 14 89 14 48 0 108 12 238 45 30 8 65 15 76 15 11 0 34 7 49 15 16 8 38 15
49 15 21 0 107 24 140 39 11 5 41 19 68 31 26 12 53 20 60 17 7 -3 31 3 53 14
21 10 45 18 52 19 6 0 12 4 12 9 0 14 59 31 108 31 36 0 43 3 34 12 -7 7 -12
20 -12 29 0 14 5 13 30 -9 28 -25 29 -27 10 -34 -23 -8 -27 -38 -6 -38 8 0 31
16 50 35 35 34 36 36 21 59 -9 13 -30 26 -47 30 -29 6 -30 7 -15 24 11 12 13
22 6 35 -14 24 14 33 55 20 60 -21 113 -25 290 -24 137 0 190 -3 226 -15 73
-24 94 -17 98 30 3 35 5 37 20 22 9 -9 28 -25 42 -36 l25 -20 -22 -6 c-39 -11
-25 -22 35 -29 78 -9 76 -8 77 -41 0 -24 5 -30 28 -32 21 -3 27 -8 23 -19 -3
-8 -6 -23 -6 -33 0 -26 -77 -38 -119 -19 -36 16 -39 34 -11 51 18 11 18 14 3
30 -9 10 -22 18 -28 18 -16 0 -24 -67 -11 -80 13 -13 -12 -32 -33 -25 -8 3
-22 -2 -32 -11 -10 -9 -23 -13 -28 -9 -6 3 -50 -6 -99 -20 -48 -15 -108 -33
-134 -41 -26 -8 -62 -14 -80 -14 -18 0 -46 -7 -62 -15 -15 -8 -46 -15 -67 -15
-22 0 -56 -7 -76 -15 -19 -8 -50 -15 -67 -15 -18 0 -56 -6 -86 -14 -30 -8 -95
-19 -145 -26 -159 -19 -260 -36 -273 -44 -13 -8 -57 -12 -224 -20 -42 -2 -82
-8 -90 -12 -14 -10 -98 -18 -338 -34 -85 -5 -166 -15 -180 -21 -14 -7 -92 -14
-175 -16 -118 -4 -153 -8 -162 -20 -9 -11 -32 -15 -95 -15 -205 2 -198 3 -198
-28 0 -10 -7 -21 -16 -24 -16 -6 -16 -8 0 -24 9 -10 16 -26 16 -36 0 -9 7 -19
15 -22 8 -3 17 -15 21 -27 4 -11 19 -34 35 -51 15 -16 35 -47 44 -67 10 -20
27 -42 40 -49 35 -19 72 -110 45 -110 -13 0 -59 51 -60 66 0 6 -20 32 -45 58
-25 27 -45 54 -45 62 0 8 -4 14 -10 14 -5 0 -17 16 -26 36 -10 20 -26 39 -36
42 -10 2 -18 11 -18 19 0 7 -7 25 -16 38 -18 28 -49 31 -179 18 -67 -7 -68 -7
-30 -14 22 -5 64 -8 93 -8 44 -1 100 -18 122 -38 11 -10 -30 -23 -77 -23 -49
0 -67 -10 -44 -25 5 -3 35 -7 65 -10 31 -3 68 -12 82 -22 23 -14 24 -17 9 -26
-9 -5 -31 -6 -48 -2 -18 3 -45 6 -62 6 -16 0 -54 8 -83 19 -30 11 -58 18 -62
15 -5 -3 -24 2 -41 11 -38 19 -24 35 25 28 17 -3 38 0 46 6 13 9 13 11 0 20
-8 5 -25 10 -37 10 -13 0 -31 13 -43 31 -21 29 -23 29 -41 13 -23 -21 -24 -47
-4 -64 19 -16 19 -39 1 -46 -14 -5 -56 28 -56 44 0 24 -49 52 -89 52 -41 0
-43 1 -39 25 6 28 -6 33 -20 9 -12 -22 -84 -47 -93 -33 -10 18 -71 26 -114 16
-22 -5 -105 -12 -185 -17 -80 -4 -178 -13 -218 -20 l-72 -13 1 -224 1 -223 35
0 c43 0 40 -21 -5 -35 l-32 -9 0 -162 0 -161 64 -5 c36 -3 82 -2 104 2 21 4
88 3 148 -1 60 -5 213 -11 339 -14 127 -4 250 -11 275 -16 25 -6 99 -13 165
-15 208 -9 279 -16 302 -32 20 -13 23 -12 29 2 4 10 -5 28 -25 48 -17 17 -31
40 -31 50 0 10 -7 21 -15 24 -8 4 -15 15 -15 25 0 10 -3 19 -8 19 -4 0 -20 11
-35 25 -21 21 -26 32 -21 53 9 36 10 37 39 22 16 -9 42 -11 77 -7 38 5 61 2
82 -8 15 -8 49 -15 75 -15 41 0 139 -35 141 -50 1 -13 -124 -8 -151 5 -15 8
-38 15 -51 15 -13 0 -36 7 -52 15 -26 14 -106 17 -106 5 1 -20 40 -49 69 -52
46 -4 52 -26 9 -30 -42 -4 -40 -20 4 -33 19 -5 43 -16 52 -24 12 -10 34 -12
80 -9 35 3 70 2 78 -3 8 -4 43 -13 79 -18 35 -6 65 -15 67 -21 2 -5 12 -10 23
-10 10 0 19 -4 19 -10 0 -13 -33 -13 -46 -1 -5 5 -36 11 -69 14 -33 3 -80 10
-105 17 -98 26 -160 22 -160 -10 0 -8 58 -26 105 -34 17 -3 51 -9 78 -15 34
-8 54 -7 72 1 20 9 28 8 44 -6 12 -11 43 -20 83 -23 35 -3 68 -10 75 -15 7 -5
18 -6 24 -2 9 5 8 10 -4 19 -17 13 -34 65 -20 65 4 0 14 -9 21 -20 9 -15 19
-19 37 -14 22 5 27 2 36 -25 10 -27 15 -31 49 -31 51 0 70 -8 70 -31 0 -10 5
-19 10 -19 6 0 14 -10 19 -22 4 -12 10 -17 14 -11 4 6 -3 23 -14 38 -30 37
-13 54 37 36 19 -7 61 -12 92 -10 58 2 73 -1 127 -27 27 -12 73 -16 170 -12
17 0 55 -6 85 -15 30 -8 72 -15 92 -14 21 0 45 -6 55 -15 26 -23 303 -26 325
-4 11 10 18 12 26 4 6 -6 19 -7 29 -3 30 12 116 14 146 3 19 -7 31 -7 40 1 8
6 56 12 108 15 91 4 94 5 94 27 0 23 -2 24 -70 20 -38 -1 -78 -7 -87 -12 -22
-12 -165 -12 -173 0 -9 16 9 20 96 22 58 1 89 6 101 16 9 8 36 16 60 18 23 2
59 8 78 14 79 25 131 3 115 -48 -5 -16 3 -19 60 -25 46 -5 74 -3 93 6 28 14
38 46 12 39 -37 -9 -45 -6 -42 17 2 12 -2 22 -7 22 -6 0 -11 5 -11 12 0 9 3 9
11 1 11 -11 49 -6 49 7 0 4 16 10 36 12 33 4 36 1 50 -31 15 -35 61 -91 75
-91 4 0 9 9 12 20 4 15 14 20 39 20 19 0 39 5 46 12 9 9 16 7 31 -6 19 -17 20
-17 31 4 6 11 8 30 5 40 -5 17 -2 20 27 20 30 -1 31 -2 16 -14 -27 -20 -22
-28 15 -24 24 2 31 7 29 20 -2 11 3 18 13 18 12 0 15 -6 10 -20 -6 -18 -2 -20
49 -20 31 0 56 5 56 10 0 11 -12 13 -47 10 -32 -2 -29 26 3 34 29 8 64 -1 64
-15 0 -5 10 -9 23 -9 38 0 67 12 67 26 0 8 7 14 15 14 8 0 15 -6 15 -14 0 -22
17 -28 41 -15 12 6 50 12 84 14 34 1 71 7 82 14 12 6 42 11 66 11 25 0 49 6
56 14 6 8 41 15 84 19 89 6 192 25 232 42 20 8 38 9 54 3 25 -9 83 11 96 32 3
6 29 10 57 10 27 0 62 6 76 14 31 16 91 32 180 48 34 6 62 15 62 19 0 5 22 9
49 9 31 0 55 6 65 15 8 8 29 15 47 15 18 0 40 6 48 13 9 7 41 19 71 26 30 8
73 22 94 32 22 11 53 19 68 19 25 0 82 30 98 52 3 3 18 8 34 10 37 4 44 21 14
36 -22 10 -22 11 10 17 17 4 32 14 32 21 0 17 27 19 32 2 6 -16 28 0 28 20 0
21 74 92 95 92 8 0 15 6 15 13 0 14 61 78 114 121 29 23 39 26 51 16 12 -10
15 -7 21 14 3 14 12 26 20 26 20 0 20 -99 -1 -106 -8 -3 -20 -24 -27 -46 -7
-23 -24 -48 -41 -60 -22 -16 -28 -27 -24 -45 3 -16 1 -21 -5 -15 -13 13 -38 4
-38 -14 0 -7 -13 -20 -30 -29 -16 -9 -30 -22 -30 -30 0 -21 56 -20 68 1 5 9
18 14 32 12 20 -2 16 -6 -24 -27 -40 -19 -52 -21 -70 -12 -16 9 -34 9 -66 2
-25 -6 -62 -11 -83 -11 -31 0 -39 -5 -47 -25 -7 -19 -17 -25 -39 -25 -21 0
-38 -10 -61 -37 -27 -31 -46 -40 -124 -61 -50 -14 -115 -28 -143 -31 -29 -4
-59 -14 -65 -23 -13 -15 -29 -21 -118 -38 -42 -7 -82 -19 -198 -56 -23 -8 -51
-14 -60 -14 -10 0 -22 -4 -27 -9 -6 -5 -44 -14 -85 -20 -41 -5 -104 -17 -140
-26 -36 -10 -94 -20 -130 -24 -36 -4 -76 -13 -89 -20 -13 -7 -51 -13 -85 -13
-33 0 -69 -4 -80 -10 -22 -12 -116 -27 -298 -48 -42 -4 -81 -11 -86 -14 -18
-11 -227 -36 -254 -31 -15 4 -36 2 -46 -4 -11 -6 -53 -14 -94 -17 -40 -4 -78
-11 -84 -15 -6 -5 -53 -11 -105 -13 -52 -3 -134 -9 -184 -15 -49 -5 -142 -13
-205 -16 -63 -4 -124 -10 -135 -15 -11 -5 -60 -11 -108 -13 -84 -5 -107 -10
-95 -22 3 -3 37 -8 74 -10 38 -2 93 -9 123 -15 29 -5 84 -10 120 -10 39 0 72
-5 79 -12 7 -7 38 -15 70 -19 188 -21 265 -32 331 -46 41 -9 114 -17 163 -17
48 -1 88 -5 88 -10 0 -5 18 -6 40 -3 22 3 43 1 46 -4 3 -5 16 -9 29 -9 13 0
50 -7 82 -15 66 -17 154 -32 263 -45 41 -5 128 -16 194 -24 65 -8 124 -12 131
-9 8 2 24 -1 37 -8 13 -7 50 -16 83 -20 33 -3 112 -14 175 -24 63 -9 135 -18
160 -19 49 -3 94 -10 185 -31 69 -16 238 -25 512 -29 166 -2 196 -5 212 -20
19 -18 176 -40 196 -28 15 9 126 14 144 6 21 -10 132 -4 153 7 12 7 20 4 26
-7 7 -12 14 -14 28 -7 10 5 53 8 94 6 118 -5 124 -5 150 -4 14 1 50 0 80 -3
30 -2 60 1 67 6 7 5 16 7 22 4 9 -6 558 -11 809 -7 l112 1 0 540 0 540 -46 0
c-32 0 -44 4 -42 12 3 8 20 11 46 9 l42 -3 0 727 c0 668 -1 726 -16 723 -9 -2
-22 -12 -28 -23 -22 -41 -56 -40 -56 0 0 28 -11 37 -29 26 -18 -11 -51 -2 -51
14 0 17 26 26 54 19 14 -3 27 1 35 10 15 18 47 21 56 6 3 -5 13 -10 21 -10 12
0 14 37 14 235 l0 235 -35 0 c-24 0 -35 -5 -35 -15 0 -8 7 -15 15 -15 16 0 21
-25 6 -34 -5 -4 -21 15 -35 40 -29 52 -31 58 -15 49 5 -4 20 1 31 12 15 13 22
15 25 6 5 -15 43 -17 43 -3 0 6 -8 10 -19 10 -10 0 -21 8 -24 19 -3 13 -18 20
-57 25 -53 7 -79 -2 -66 -23 4 -6 14 -11 22 -11 8 0 14 -5 14 -10 0 -18 -43
-28 -90 -21 -43 6 -45 8 -54 49 -11 45 -42 63 -34 18 4 -19 0 -26 -16 -30 -32
-8 -76 15 -76 41 0 14 -8 24 -22 29 -13 3 -29 11 -36 17 -17 14 -112 20 -112
7 0 -17 44 -40 78 -40 22 0 35 -6 39 -17 4 -10 15 -24 25 -31 19 -14 24 -47 8
-57 -5 -3 -10 -15 -10 -26 0 -23 -15 -25 -24 -4 -7 19 -66 20 -66 1 0 -7 10
-16 22 -19 18 -5 19 -8 9 -21 -15 -18 -31 -12 -31 10 0 8 -7 14 -15 14 -8 0
-15 7 -15 15 0 8 4 15 9 15 5 0 12 8 15 18 3 10 19 26 36 35 46 27 37 38 -27
33 -32 -2 -64 -5 -72 -5 -11 -1 -11 -5 2 -19 22 -24 21 -29 -5 -35 -22 -6 -21
-6 5 -33 34 -33 34 -46 2 -38 -22 5 -25 3 -25 -19 0 -33 -44 -46 -71 -21 -18
16 -23 17 -70 2 -50 -16 -50 -16 -59 7 -13 34 -28 39 -58 19 -15 -10 -48 -20
-74 -21 -42 -3 -47 -1 -50 19 -2 15 -11 24 -25 26 -13 2 -23 8 -23 13 0 5 -11
14 -25 19 -14 5 -25 14 -25 20 0 11 -43 14 -53 4 -3 -4 3 -14 14 -23 13 -10
18 -22 14 -34 -10 -25 -24 -21 -36 11 -9 23 -12 25 -20 10 -10 -18 -2 -48 12
-48 21 0 6 -19 -22 -29 -18 -6 -33 -11 -35 -11 -9 0 -54 57 -54 68 0 22 -24
23 -65 3 -29 -14 -44 -16 -53 -9 -21 18 -39 -7 -21 -28 12 -16 12 -17 -5 -11
-11 5 -26 2 -35 -6 -12 -10 -49 -12 -166 -7 -82 3 -158 2 -168 -2 -10 -5 -86
-8 -170 -8 -84 1 -159 -1 -167 -4 -9 -4 -25 2 -37 14 -26 24 -39 25 -46 6 -8
-19 -77 -9 -94 13 -10 14 -12 14 -18 -1 -8 -21 -55 -24 -85 -6 -15 10 -22 9
-37 -3 -62 -50 -47 -48 -551 -48 -259 1 -475 -2 -481 -5 -16 -10 -290 -16
-295 -7 -6 9 -93 8 -116 -2 -12 -5 -84 -14 -135 -17 -5 0 -33 2 -61 6 -31 4
-59 2 -72 -5 -14 -8 -23 -8 -27 -1 -4 6 -36 10 -73 9 -37 -1 -91 4 -121 11
-43 11 -71 11 -140 1 -91 -13 -476 -20 -493 -10 -7 5 -7 12 0 25 8 15 2 26
-36 62 -38 37 -46 51 -46 80 0 20 5 37 12 40 15 5 15 37 0 61 -10 17 -8 23 13
40 13 11 34 20 47 21 36 0 27 28 -10 32 -28 2 -33 7 -33 28 0 23 -4 25 -52 28
-29 2 -56 9 -63 17 -16 20 -65 19 -95 -1 -14 -9 -32 -13 -42 -10 -36 14 -577
28 -610 15 -13 -5 -100 -14 -191 -20 -92 -5 -203 -14 -247 -19 -44 -5 -108 -9
-142 -9 -34 -1 -64 -4 -67 -9 -2 -4 0 -26 6 -48 6 -22 8 -52 4 -67 l-6 -27
-177 4 c-107 3 -180 9 -187 16 -7 7 -10 49 -7 113 2 85 0 105 -13 116 -12 10
-19 11 -29 2 -8 -6 -17 -8 -20 -4 -11 11 -8 23 6 23 8 0 19 11 25 24 8 19 7
26 -9 40 -11 9 -26 16 -33 16 -8 0 -24 13 -36 30 l-21 30 27 25 c21 20 28 35
28 66 1 23 7 44 16 50 12 9 11 9 -5 4 -47 -17 -54 -16 -65 4 -12 24 -6 41 16
41 20 0 18 27 -3 39 -13 7 -17 21 -16 51 2 38 -1 43 -31 55 -18 8 -38 21 -46
29 -18 23 -44 20 -79 -10 -21 -18 -37 -23 -51 -19 -12 4 -27 1 -35 -5 -11 -9
-16 -7 -25 10 -11 20 -13 20 -24 5 -12 -17 -81 -35 -104 -27 -9 3 -8 8 5 17
15 12 16 17 6 34 -7 12 -13 28 -13 36 0 10 -10 15 -30 15 -23 0 -31 5 -36 24
-8 34 2 46 37 46 37 0 37 13 -2 41 -23 16 -36 20 -47 12 -12 -7 -26 -3 -54 16
-42 30 -47 41 -17 41 11 0 32 9 46 20 14 11 38 20 53 20 29 0 94 27 145 61 17
10 37 22 46 25 9 3 26 19 38 35 14 18 31 29 46 29 14 0 25 6 25 13 0 7 17 30
38 50 32 31 47 38 83 40 37 2 44 -1 41 -16 -2 -12 8 -22 35 -33 20 -9 42 -23
49 -32 8 -11 13 -12 18 -4 10 17 42 15 60 -4 13 -13 24 -14 64 -5 42 9 49 8
62 -10 11 -13 22 -18 33 -13 22 8 67 -31 67 -58 0 -11 -12 -23 -27 -30 l-28
-12 24 -4 c28 -4 64 33 56 57 -3 8 2 22 11 32 21 24 49 25 40 3 -9 -25 12 -45
40 -38 17 4 26 1 30 -10 9 -23 5 -25 -47 -29 -24 -2 -56 -10 -69 -17 l-24 -13
22 -15 c12 -8 22 -20 22 -27 0 -7 22 -15 57 -19 49 -6 59 -4 79 15 16 15 28
19 41 13 10 -4 27 -8 38 -8 14 -1 21 -9 23 -28 3 -22 -2 -29 -22 -34 -26 -6
-35 -27 -16 -39 6 -3 10 -24 10 -45 0 -51 15 -59 30 -15 11 32 30 48 30 25 0
-5 7 -10 16 -10 13 0 15 7 11 34 -3 21 0 41 8 53 13 17 14 16 24 -9 15 -39 31
-35 31 7 0 38 19 48 27 15 6 -23 23 -26 41 -8 9 9 15 8 28 -8 15 -18 15 -17
10 16 -4 19 -15 47 -26 62 -11 15 -20 34 -20 43 0 17 -25 20 -35 4 -5 -7 -12
-5 -23 5 -10 8 -30 18 -47 21 -32 8 -75 46 -75 67 0 8 -7 24 -16 36 -16 23
-13 52 6 52 5 0 10 -7 10 -15 0 -8 4 -15 8 -15 5 0 17 -6 27 -14 16 -12 17
-16 6 -30 -11 -14 -11 -16 3 -16 9 0 16 5 16 10 0 6 11 10 26 10 31 0 96 66
92 95 -3 17 -12 21 -55 23 -49 3 -53 1 -59 -23 -6 -25 -9 -26 -48 -20 -22 4
-46 13 -52 21 -6 8 -19 14 -28 14 -21 0 -20 16 3 39 28 28 78 50 101 44 15 -4
20 0 20 16 0 12 6 21 15 21 19 0 19 -24 0 -40 -21 -18 -19 -37 6 -51 22 -12
25 -10 50 34 5 10 14 15 19 12 5 -3 19 -1 30 5 17 9 20 8 20 -8 0 -27 22 -42
48 -35 24 6 31 33 8 33 -16 0 -26 21 -26 56 0 14 6 24 14 24 8 0 16 7 20 15 8
22 34 18 41 -5 8 -25 37 -27 33 -2 -2 11 2 25 9 33 6 8 13 28 15 44 2 25 10
32 41 42 21 7 45 20 53 28 14 13 20 12 59 -10 l43 -26 6 36 c6 29 29 55 49 55
3 0 8 -16 11 -36 5 -26 12 -34 24 -32 12 2 17 14 17 38 0 26 4 34 15 32 8 -2
17 -8 18 -13 6 -16 30 -10 51 12 17 18 24 20 50 11 23 -8 33 -8 38 2 7 11 78
29 170 43 18 3 38 11 44 19 10 12 14 12 30 -2 14 -13 26 -14 56 -7 24 6 37 15
35 23 -14 61 -14 70 1 70 8 0 20 7 27 15 12 14 15 14 30 0 9 -8 22 -15 28 -15
16 0 15 -12 -2 -35 -7 -10 -20 -16 -28 -12 -17 6 -38 -10 -38 -30 0 -7 9 -13
20 -13 11 0 20 -6 20 -14 0 -22 22 -31 34 -14 14 19 86 12 86 -8 0 -25 17 -23
46 6 24 24 38 29 74 30 26 0 51 5 58 12 9 9 17 6 36 -11 27 -25 52 -23 63 6
13 36 54 44 84 17 14 -13 21 -13 40 -2 52 29 94 89 85 122 -7 28 17 54 37 39
6 -5 24 -14 39 -21 27 -11 27 -11 21 18 -3 19 -1 30 6 30 26 0 8 40 -42 92
-44 47 -56 54 -71 46 -13 -7 -26 -7 -43 1 -16 8 -30 8 -43 1 -13 -7 -21 -7
-26 1 -4 7 -20 8 -41 4 -45 -8 -66 8 -58 47 l7 28 -246 0 c-237 0 -246 -1
-246 -20 0 -10 7 -23 17 -28 11 -7 14 -16 9 -28 -7 -18 -9 -18 -27 5 -10 13
-19 34 -19 47 0 24 -1 24 -104 24 -95 0 -104 -2 -109 -20 -3 -14 -14 -20 -32
-20 -18 0 -29 6 -32 20 -5 19 -14 20 -208 20 -194 0 -203 -1 -208 -20 -3 -12
-14 -20 -26 -20 -14 0 -21 6 -21 20 0 20 -7 20 -766 20 -480 0 -763 -4 -759
-9 8 -14 -30 -32 -49 -25 -9 3 -16 12 -16 20 0 8 -9 14 -20 14 -23 0 -27 -28
-5 -36 20 -8 19 -20 -4 -43 -26 -26 -59 -35 -76 -21 -8 7 -22 10 -30 6 -8 -3
-15 -3 -15 0 0 12 24 50 36 57 8 4 14 15 14 22 0 12 -24 15 -140 15 -127 0
-140 -2 -140 -17 -1 -17 -1 -17 -14 0 -11 15 -31 17 -140 17 l-126 0 1 -452z
m3219 382 c0 -10 9 -24 21 -31 16 -8 18 -14 10 -22 -8 -8 -15 -7 -25 3 -18 19
-30 70 -16 70 5 0 10 -9 10 -20z m187 0 c8 -12 9 -21 3 -25 -15 -9 -30 4 -30
26 0 24 12 24 27 -1z m-3055 -22 c-6 -6 -16 -7 -22 -3 -9 6 -9 9 1 16 17 10
34 0 21 -13z m308 -21 c0 -27 -26 -50 -48 -43 -21 7 -21 8 -4 31 18 26 52 34
52 12z m340 3 c0 -5 -9 -10 -19 -10 -19 0 -35 -23 -24 -34 4 -3 19 -6 34 -6
36 0 41 -9 27 -53 -8 -27 -17 -37 -32 -37 -20 0 -31 -16 -50 -72 -3 -11 -15
-18 -30 -18 -33 0 -59 -42 -51 -81 5 -22 3 -29 -9 -29 -9 0 -16 3 -16 8 0 4
-14 16 -30 27 -16 11 -30 26 -30 33 0 7 -25 24 -55 37 -49 22 -56 23 -82 10
-26 -14 -29 -13 -55 16 -16 17 -28 34 -28 39 0 18 18 19 34 1 17 -19 18 -19
63 1 l46 20 17 -22 c12 -16 23 -21 35 -16 15 5 16 4 6 -8 -20 -24 -2 -40 21
-20 13 12 17 26 13 41 -4 18 0 24 22 29 16 4 31 12 36 18 5 8 9 8 15 0 11 -17
52 -24 52 -10 0 7 11 18 25 24 14 6 25 16 25 21 0 27 -15 41 -41 41 -44 0 -36
26 14 43 53 18 67 20 67 7z m540 2 c0 -4 -6 -20 -12 -34 -11 -22 -19 -26 -53
-25 -50 2 -57 30 -8 35 17 2 37 10 43 18 13 15 30 19 30 6z m239 -5 c6 -8 14
-28 17 -45 6 -28 3 -33 -22 -43 -41 -15 -88 0 -92 30 -7 48 68 92 97 58z m841
-27 c0 -13 -7 -20 -20 -20 -22 0 -28 25 -7 33 22 10 27 7 27 -13z m-770 -10
c0 -21 -15 -27 -25 -10 -7 12 2 30 16 30 5 0 9 -9 9 -20z m-620 0 c0 -5 -6
-10 -14 -10 -8 0 -18 5 -21 10 -3 6 3 10 14 10 12 0 21 -4 21 -10z m1940 -26
c0 -9 -7 -14 -17 -12 -25 5 -28 28 -4 28 12 0 21 -6 21 -16z m-26 -92 c-13
-37 -26 -36 -51 4 -18 27 -20 40 -13 60 l10 25 32 -31 c27 -27 30 -36 22 -58z
m-1066 55 c6 -5 12 -16 12 -24 0 -11 -9 -12 -37 -7 -46 8 -58 17 -50 39 7 16
49 12 75 -8z m1364 9 c13 -19 8 -44 -9 -49 -10 -2 -25 -8 -34 -12 -12 -4 -21
2 -33 26 -9 18 -16 36 -16 40 0 12 84 7 92 -5z m-1262 -31 c0 3 10 0 23 -7 12
-7 31 -13 42 -13 17 0 20 -7 20 -40 0 -31 -4 -41 -19 -43 -11 -2 -24 2 -30 10
-6 8 -19 17 -29 21 -11 4 -21 16 -24 27 -3 11 -14 22 -24 25 -19 6 -25 26 -12
38 3 4 17 0 30 -8 13 -9 23 -13 23 -10z m630 7 c0 -10 -5 -23 -11 -29 -17 -17
11 -53 42 -53 27 0 69 -39 69 -64 0 -8 -14 -22 -32 -30 -39 -20 -36 -20 -40 7
-2 18 -8 21 -30 19 -28 -3 -32 3 -29 39 1 9 -5 22 -14 29 -18 15 -20 71 -3 88
18 18 48 15 48 -6z m-230 -2 c13 -9 13 -11 0 -19 -17 -12 -30 -5 -30 15 0 16
9 18 30 4z m623 -5 c1 -5 -6 -11 -15 -13 -11 -2 -18 3 -18 13 0 17 30 18 33 0z
m109 -15 c9 -20 20 -30 35 -30 12 0 24 -8 27 -18 4 -11 18 -25 31 -32 31 -17
31 -21 1 -53 -21 -23 -28 -25 -56 -17 -18 5 -33 11 -34 12 -1 2 -6 16 -12 33
-5 16 -19 35 -32 41 -32 16 -35 20 -23 41 5 10 12 26 15 36 8 27 33 20 48 -13z
m-1912 -15 c0 -12 -28 -35 -44 -35 -8 0 -7 35 1 43 12 13 43 7 43 -8z m1240
-21 c19 -48 8 -57 -31 -26 -14 12 -20 25 -16 35 10 25 36 20 47 -9z m-705 -19
c0 -38 -37 -48 -55 -15 -17 32 -5 52 27 48 24 -3 28 -8 28 -33z m-1465 10 c0
-8 -6 -15 -14 -15 -17 0 -28 14 -19 24 12 12 33 6 33 -9z m2261 -27 c13 -18
26 -42 29 -53 3 -11 14 -20 25 -20 10 0 20 -5 22 -11 5 -16 -61 -24 -132 -16
-46 5 -61 11 -63 25 -3 15 1 17 22 11 21 -5 26 -3 26 14 0 11 7 25 15 32 8 7
15 21 15 31 0 28 13 23 41 -13z m-969 -40 c2 -25 8 -33 23 -34 11 0 28 -4 37
-8 15 -7 15 -10 -4 -42 -18 -31 -19 -37 -6 -52 9 -9 18 -24 21 -32 4 -12 6
-11 6 3 1 27 35 17 39 -11 2 -12 7 -22 11 -22 5 0 14 -20 21 -45 11 -40 11
-48 -4 -63 -9 -10 -16 -26 -16 -35 0 -18 -38 -41 -87 -52 -18 -3 -37 -14 -42
-22 -12 -22 -41 -9 -41 17 0 11 7 23 15 26 16 7 21 34 6 34 -5 0 -14 12 -20
28 -19 50 -34 61 -87 62 -75 2 -114 -9 -114 -31 0 -12 -9 -20 -27 -24 -69 -14
-108 -32 -111 -52 -4 -29 24 -50 49 -35 10 7 34 12 52 12 18 0 42 7 53 15 25
19 34 19 34 -1 0 -9 9 -27 20 -41 22 -28 26 -52 10 -54 -5 -1 -14 -3 -20 -4
-5 -1 -13 -3 -17 -4 -4 0 -2 -6 5 -13 17 -17 15 -37 -3 -44 -24 -10 -95 44
-95 72 0 12 5 26 10 29 13 8 13 35 1 35 -5 0 -13 -9 -16 -20 -3 -11 -13 -20
-21 -20 -8 0 -14 -9 -14 -19 0 -27 -14 -33 -44 -20 -17 8 -26 20 -26 36 0 13
-8 26 -17 30 -10 3 -24 11 -32 17 -13 11 -39 16 -89 17 -22 1 -26 24 -4 24 6
0 17 8 24 17 7 9 24 18 38 20 19 2 27 11 34 40 9 35 10 35 25 18 15 -18 19
-18 50 -4 33 14 33 15 16 34 -14 15 -16 29 -11 65 7 41 5 46 -17 56 -16 7 -27
22 -29 40 -7 46 3 53 72 45 107 -12 141 -36 79 -58 -20 -7 -28 -15 -25 -25 3
-8 1 -23 -4 -33 -7 -13 -7 -21 1 -25 6 -4 8 -18 4 -33 -4 -16 -1 -28 7 -33 21
-14 28 -11 38 16 6 15 17 25 30 25 11 0 20 6 20 14 0 23 20 29 39 12 16 -15
19 -14 29 9 6 13 23 27 37 31 16 4 25 13 25 25 0 10 6 19 14 19 24 0 30 21 7
27 -25 6 -26 16 -5 48 23 35 42 31 46 -7z m442 -35 c8 -21 -10 -41 -24 -27
-11 11 -3 44 10 44 4 0 11 -8 14 -17z m-1466 -12 c17 11 24 8 51 -21 17 -19
31 -42 31 -51 0 -22 -85 -135 -106 -141 -12 -3 -74 67 -74 84 0 5 12 13 26 18
19 8 25 16 21 30 -3 11 -1 22 3 25 5 3 6 22 4 43 -5 34 -4 35 9 19 13 -15 18
-16 35 -6z m-273 -33 c-10 -60 -33 -101 -51 -94 -9 3 -20 6 -25 6 -5 0 -9 20
-9 45 0 34 4 47 18 52 9 4 21 12 25 20 4 7 17 13 28 13 19 0 20 -4 14 -42z
m1688 27 c1 -5 -6 -11 -15 -13 -11 -2 -18 3 -18 13 0 17 30 18 33 0z m317 -35
c0 -5 -4 -10 -10 -10 -5 0 -10 -7 -10 -15 0 -16 -12 -20 -23 -8 -4 3 1 14 11
24 19 20 32 24 32 9z m-2124 -24 c6 -26 -1 -46 -16 -46 -12 0 -24 46 -15 59
11 18 24 12 31 -13z m-123 8 c11 -11 -5 -34 -24 -34 -17 0 -18 3 -9 20 11 20
22 25 33 14z m419 -16 c-9 -9 -15 -9 -24 0 -9 9 -7 12 12 12 19 0 21 -3 12
-12z m-112 -19 c7 13 14 12 49 -4 37 -16 41 -21 41 -55 0 -37 -12 -50 -46 -50
-19 0 -18 26 2 34 8 3 12 10 9 16 -4 7 -12 7 -23 1 -19 -11 -48 2 -73 33 -21
26 -15 40 12 23 16 -10 21 -9 29 2z m-150 -86 c3 -2 -6 -12 -18 -22 -24 -18
-20 -31 10 -31 20 0 23 -11 7 -27 -12 -12 -39 -6 -51 11 -10 14 -10 70 -1 79
6 7 42 0 53 -10z m1624 -29 c22 -9 20 -24 -3 -24 -21 0 -34 13 -24 24 8 7 8 7
27 0z m-1934 -33 c0 -5 -7 -14 -15 -21 -19 -16 -19 -44 0 -60 18 -15 10 -31
-10 -23 -11 3 -15 21 -15 59 0 47 2 54 20 54 11 0 20 -4 20 -9z m494 -12 c-8
-14 -24 -10 -24 6 0 9 6 12 15 9 8 -4 12 -10 9 -15z m-312 -31 c-14 -14 -42 2
-42 23 0 19 1 19 26 3 14 -10 21 -21 16 -26z m368 32 c0 -5 -9 -10 -20 -10
-11 0 -20 5 -20 10 0 6 9 10 20 10 11 0 20 -4 20 -10z m504 -23 c-4 -77 -4
-77 -27 -77 -13 0 -28 -5 -35 -12 -9 -9 -12 -6 -12 13 0 14 11 36 25 49 14 13
25 30 25 38 0 7 6 12 13 10 6 -3 12 -12 11 -21z m-797 -23 c3 -8 -1 -22 -10
-31 -14 -14 -16 -13 -26 6 -7 12 -9 26 -6 31 10 15 35 12 42 -6z m-139 -6 c-3
-7 -17 -13 -33 -13 -16 0 -30 6 -32 13 -3 8 7 12 32 12 25 0 35 -4 33 -12z
m812 4 c0 -18 -35 -78 -59 -104 -14 -15 -34 -38 -43 -52 -10 -13 -28 -26 -40
-28 -15 -2 -24 -11 -26 -25 -4 -29 11 -30 29 -2 9 13 20 18 32 14 31 -12 22
-29 -38 -71 -78 -55 -152 -74 -209 -53 -36 13 -39 29 -7 29 11 0 29 9 42 19
19 16 22 22 12 32 -20 20 -15 47 13 72 15 12 49 43 77 70 36 33 60 47 79 47
15 0 28 -4 28 -10 0 -14 33 -13 48 2 7 7 12 22 12 33 0 12 3 25 7 28 9 10 43
9 43 -1z m700 -22 c0 -11 -7 -20 -15 -20 -15 0 -21 21 -8 33 12 13 23 7 23
-13z m-1545 -41 c11 -17 0 -20 -21 -4 -17 13 -17 14 -2 15 9 0 20 -5 23 -11z
m495 -4 c0 -8 -9 -15 -20 -15 -10 0 -35 -13 -53 -30 -42 -37 -77 -40 -77 -7 0
16 11 28 43 44 51 26 107 30 107 8z m-175 -102 c-8 -33 -45 -92 -64 -102 -11
-6 -34 -1 -68 15 -53 23 -60 35 -53 84 3 20 3 21 44 30 30 7 36 5 36 -9 0 -9
-5 -22 -12 -29 -9 -9 -7 -13 5 -18 24 -9 47 2 47 24 0 10 10 29 22 41 21 23
22 23 35 5 8 -11 11 -29 8 -41z m1248 -69 c-45 -37 -58 -31 -22 10 12 14 28
22 36 19 11 -5 8 -11 -14 -29z m-1125 -71 c-4 -25 -76 -59 -91 -44 -9 9 -4 18
18 36 36 29 78 34 73 8z m1342 -148 c0 -8 -4 -15 -9 -15 -13 0 -22 16 -14 24
11 11 23 6 23 -9z m-1468 -120 c3 -31 0 -37 -23 -49 -19 -10 -30 -11 -38 -3
-7 7 -18 7 -36 -3 -31 -17 -78 -3 -83 24 -5 24 13 42 30 29 7 -5 36 -9 63 -9
44 1 50 4 53 24 5 35 29 26 34 -13z m148 -10 c23 -19 46 -35 52 -35 5 0 8 -5
6 -12 -3 -7 -24 -13 -48 -15 -43 -3 -75 11 -64 28 3 5 0 17 -5 27 -7 13 -7 22
1 30 15 15 10 17 58 -23z m-226 -177 c17 -25 13 -38 -13 -38 -24 0 -45 25 -37
45 8 22 32 18 50 -7z m101 -218 c-5 -14 -2 -20 10 -20 24 0 29 -26 8 -49 -23
-28 -47 -27 -62 3 -12 21 -10 28 10 55 26 35 43 41 34 11z m373 -13 c2 -12 -3
-17 -17 -17 -12 0 -21 6 -21 13 0 31 32 34 38 4z m-268 -107 c18 -16 41 -30
51 -30 22 0 23 -7 4 -40 -8 -14 -14 -37 -15 -51 0 -23 -5 -27 -36 -31 -42 -5
-53 10 -37 53 13 34 -4 54 -36 44 -29 -9 -40 38 -16 65 25 28 48 25 85 -10z
m-121 -140 c9 0 22 5 29 12 14 14 17 -3 3 -17 -5 -6 -11 -21 -13 -35 -2 -18
-10 -25 -28 -27 -14 -1 -36 -5 -50 -8 -20 -5 -30 0 -48 25 -27 36 -22 51 16
44 16 -3 35 1 47 10 11 8 22 10 23 5 2 -5 11 -9 21 -9z m-201 -57 c2 -8 -5
-13 -17 -13 -12 0 -21 6 -21 16 0 18 31 15 38 -3z m1877 -129 c-25 -19 -35
-18 -35 4 0 27 10 33 33 20 20 -10 20 -11 2 -24z m227 -4 c-16 -26 -15 -45 4
-64 11 -11 21 -13 33 -7 13 7 20 5 30 -11 7 -11 18 -17 27 -14 9 3 26 3 40 0
21 -5 24 -12 24 -53 0 -25 -4 -52 -9 -60 -11 -17 13 -71 30 -71 8 0 8 -4 1
-12 -14 -18 -25 -95 -14 -101 4 -4 19 -3 31 0 20 5 22 11 20 61 -2 33 2 57 8
59 7 3 10 -63 9 -214 l-1 -218 -22 3 c-17 2 -23 -2 -23 -16 0 -10 -9 -27 -20
-37 -20 -18 -21 -18 -48 8 -25 25 -26 32 -26 117 0 49 -3 90 -8 90 -10 0 -11
-11 -12 -120 -1 -73 -3 -85 -19 -88 -10 -2 -26 -1 -35 3 -15 5 -14 9 8 25 l25
19 -24 25 c-23 24 -23 27 -8 44 21 23 22 56 2 72 -15 13 -21 50 -7 50 4 0 13
4 20 9 11 6 8 14 -11 35 -28 30 -54 27 -62 -8 -11 -43 -22 -321 -14 -338 13
-25 11 -54 -6 -68 -12 -10 -16 -8 -25 14 -5 14 -7 39 -4 56 4 16 4 36 1 45 -8
21 -37 8 -37 -17 0 -14 -5 -18 -16 -14 -25 10 -94 -17 -94 -36 0 -30 -21 -31
-32 -1 l-11 29 -111 -1 -111 0 -1 40 c0 22 -2 104 -4 183 -2 79 1 147 6 152 5
5 47 9 94 9 47 -1 104 -1 126 0 l42 0 7 -55 c7 -57 20 -69 34 -31 10 25 51 57
73 57 10 0 13 -20 12 -78 -3 -137 -3 -142 -24 -159 -22 -19 -11 -33 28 -33 23
0 23 1 17 83 -3 45 -1 104 4 132 7 36 6 52 -2 57 -6 4 -8 10 -5 14 11 10 147
13 154 3 9 -16 24 -10 24 10 0 16 -8 20 -37 23 -30 2 -39 8 -41 24 -3 19 -9
21 -75 19 -40 -1 -77 1 -82 6 -15 11 -175 21 -175 10 0 -16 -44 -20 -60 -6
-21 19 -40 19 -74 1 -17 -9 -39 -11 -65 -6 -21 4 -60 5 -87 2 -89 -7 -479 -8
-501 0 -31 10 -30 44 1 52 13 3 44 3 69 0 36 -5 51 -2 74 13 33 24 106 36 122
20 6 -6 11 -19 11 -29 0 -19 25 -25 35 -8 10 16 75 12 81 -5 7 -17 34 -21 34
-5 0 6 13 10 29 10 17 0 32 3 35 8 5 9 89 7 128 -3 16 -4 36 -4 45 0 10 5 32
9 50 10 41 2 65 22 58 46 -8 24 13 25 31 2 7 -10 14 -28 14 -40 0 -27 12 -30
30 -8 7 8 18 15 25 15 7 0 18 -7 25 -15 16 -20 49 -19 72 1 16 16 18 16 24 0
9 -22 24 -20 24 4 0 11 -5 20 -12 20 -6 0 -9 2 -6 5 3 3 17 0 32 -6 18 -8 26
-20 26 -36 0 -15 5 -23 13 -20 8 2 11 26 9 83 -3 99 -3 92 4 137 5 30 3 37
-10 37 -24 0 -20 44 7 74 26 29 49 18 29 -14z m155 -7 c2 -44 -13 -59 -48 -48
-19 6 -27 35 -10 35 5 0 7 9 4 21 -6 23 12 41 37 36 10 -1 16 -16 17 -44z
m-657 -46 c0 -7 14 -21 30 -30 17 -10 30 -25 30 -34 0 -9 7 -24 16 -34 9 -10
14 -25 10 -34 -8 -21 -26 -10 -26 15 0 10 -6 23 -12 27 -19 12 -78 90 -78 102
0 6 -6 11 -14 11 -21 0 -31 21 -15 30 14 9 59 -31 59 -53z m865 -18 c0 -7 -20
-24 -44 -38 -24 -13 -46 -32 -48 -42 -7 -27 -25 -24 -21 3 2 17 -5 26 -32 39
-59 28 -45 43 45 50 97 6 100 6 100 -12z m227 5 c62 -5 80 -16 75 -43 -3 -23
-24 -24 -30 -1 -8 29 -26 25 -38 -10 -9 -24 -17 -30 -40 -30 -17 0 -32 6 -35
15 -4 8 -15 15 -25 15 -12 0 -19 7 -19 19 0 23 27 54 40 46 5 -3 37 -8 72 -11z
m145 -50 c3 -8 -2 -23 -11 -32 -15 -15 -16 -15 -16 0 0 9 -3 23 -6 32 -4 11
-1 16 10 16 9 0 19 -7 23 -16z m-1054 -8 c6 -15 -1 -26 -15 -26 -4 0 -8 9 -8
20 0 23 15 27 23 6z m5996 -13 c8 -15 13 -16 30 -5 18 11 21 10 21 -7 0 -28
-15 -34 -66 -26 -47 7 -53 15 -28 39 20 21 31 20 43 -1z m-849 -28 c0 -16 -30
-35 -54 -35 -19 0 -21 21 -4 38 17 17 58 15 58 -3z m-4603 -11 c8 -21 -13 -42
-28 -27 -13 13 -5 43 11 43 6 0 13 -7 17 -16z m-1143 0 c20 -8 11 -24 -15 -24
-10 0 -19 7 -19 15 0 16 9 19 34 9z m111 -14 c-3 -5 -13 -10 -21 -10 -8 0 -14
5 -14 10 0 6 9 10 21 10 11 0 17 -4 14 -10z m1388 -5 c1 -5 -6 -11 -15 -13
-11 -2 -18 3 -18 13 0 17 30 18 33 0z m50 -5 c3 -12 14 -20 26 -20 21 0 21 -1
5 -25 -26 -40 -51 -33 -56 16 -2 22 -2 42 1 45 10 9 19 3 24 -16z m3904 -6
c-9 -9 -28 6 -21 18 4 6 10 6 17 -1 6 -6 8 -13 4 -17z m-3772 -13 c3 -5 -8
-23 -25 -39 l-30 -30 -6 25 c-4 13 -1 35 6 48 10 19 17 22 31 15 10 -6 20 -14
24 -19z m-495 -7 c0 -17 -22 -14 -28 4 -2 7 3 12 12 12 9 0 16 -7 16 -16z
m542 -46 c2 -16 11 -24 28 -26 14 -1 36 -5 50 -8 24 -5 24 -6 6 -20 -11 -8
-37 -14 -58 -14 -33 0 -38 3 -38 23 0 12 -3 32 -6 45 -4 12 -2 22 4 22 6 0 12
-10 14 -22z m2658 -8 c0 -5 -9 -10 -20 -10 -11 0 -20 5 -20 10 0 6 9 10 20 10
11 0 20 -4 20 -10z m-2005 -10 c-3 -5 -12 -10 -20 -10 -8 0 -17 5 -20 10 -4 6
5 10 20 10 15 0 24 -4 20 -10z m-845 -26 c11 -20 12 -29 2 -44 -17 -27 -16
-28 23 -44 42 -18 45 -40 9 -68 -23 -19 -24 -22 -10 -37 18 -20 21 -47 6 -56
-14 -9 -12 -59 2 -73 13 -13 6 -22 -27 -36 -6 -3 -4 -9 4 -14 11 -8 9 -12 -9
-22 -12 -6 -24 -10 -26 -7 -4 4 -6 76 -3 122 1 21 1 140 -1 243 -1 66 8 78 30
36z m-2618 -6 c-6 -6 -21 -7 -33 -3 -23 8 -23 8 -4 15 26 9 50 1 37 -12z m778
1 c0 -5 -9 -9 -20 -9 -22 0 -27 16 -7 23 15 5 27 -1 27 -14z m1981 -19 c27 0
34 -25 15 -54 -10 -17 -22 -23 -35 -19 -32 8 -40 25 -34 71 5 40 7 41 20 22 8
-11 23 -20 34 -20z m779 30 c0 -5 -11 -10 -24 -10 -14 0 -28 5 -31 10 -4 6 7
10 24 10 17 0 31 -4 31 -10z m-3720 -10 c0 -5 -7 -10 -15 -10 -8 0 -15 5 -15
10 0 6 7 10 15 10 8 0 15 -4 15 -10z m420 6 c0 -16 -14 -36 -26 -36 -14 0 -19
22 -7 33 7 8 33 10 33 3z m140 -17 c0 -11 -4 -17 -10 -14 -5 3 -10 13 -10 21
0 8 5 14 10 14 6 0 10 -9 10 -21z m195 14 c-11 -3 -25 -10 -32 -15 -13 -10
-33 -3 -33 13 0 5 19 8 43 8 23 -1 33 -4 22 -6z m2578 0 c-13 -2 -33 -2 -45 0
-13 2 -3 4 22 4 25 0 35 -2 23 -4z m-3263 -13 c8 -5 11 -12 8 -16 -4 -3 -14 1
-23 10 -18 17 -9 21 15 6z m5717 -13 c4 -7 8 -48 8 -92 l0 -80 135 0 c192 -1
199 -1 193 -23 -2 -10 5 -26 16 -36 14 -13 18 -26 15 -46 -5 -20 1 -34 20 -55
28 -30 38 -28 41 8 1 16 8 22 26 23 13 1 31 3 39 5 11 3 14 -4 12 -29 -3 -26
1 -34 21 -41 37 -14 41 -29 13 -43 -14 -6 -27 -15 -27 -20 -6 -29 -1 -33 46
-38 l50 -5 -3 -47 c-3 -56 12 -69 33 -28 14 28 19 30 54 24 35 -6 39 -4 51 26
9 23 18 30 34 28 24 -3 66 33 66 56 0 14 -36 46 -52 46 -5 0 -8 -9 -8 -19 0
-20 -32 -37 -50 -26 -18 11 -11 33 12 41 l23 7 -23 8 c-20 7 -22 13 -16 47 5
30 2 40 -9 45 -9 3 -21 -1 -27 -8 -10 -12 -17 -10 -42 15 -16 17 -38 30 -48
30 -24 0 -34 16 -18 26 7 5 60 7 117 5 101 -3 104 -3 131 -33 21 -22 33 -28
49 -23 27 8 61 -2 61 -20 0 -7 -10 -15 -22 -19 l-23 -6 24 -18 c17 -14 22 -24
16 -40 -3 -12 -12 -22 -20 -22 -22 0 -47 -31 -41 -53 5 -22 -29 -97 -45 -97
-5 0 -12 7 -15 15 -8 20 -16 19 -48 -6 -25 -19 -26 -23 -12 -38 9 -10 16 -21
16 -24 0 -12 -58 -8 -62 4 -3 8 -14 6 -37 -5 -30 -16 -32 -19 -17 -35 14 -15
13 -19 -14 -41 -34 -28 -39 -44 -12 -37 9 3 34 8 55 12 33 5 37 4 37 -15 0
-11 -4 -20 -9 -20 -15 0 -23 -33 -10 -41 18 -11 39 1 39 22 0 20 17 24 58 13
25 -7 28 -30 8 -57 -16 -20 -94 -37 -124 -26 -14 5 -28 2 -45 -11 -34 -27 -67
-16 -67 20 0 19 -6 30 -17 33 -25 5 -71 -23 -77 -47 -4 -16 -8 -18 -18 -8 -18
18 -28 15 -28 -8 0 -27 -28 -37 -43 -16 -11 15 -15 14 -35 -14 -13 -17 -22
-39 -20 -48 2 -9 29 -30 61 -45 31 -15 57 -32 57 -37 0 -5 -16 -12 -37 -16
-28 -5 -39 -3 -48 10 -13 17 -48 29 -75 27 -102 -11 -174 -11 -184 -1 -17 17
11 30 64 30 25 0 61 3 81 6 33 6 37 10 42 43 3 20 8 43 11 51 3 8 2 22 -3 30
-9 12 -12 12 -29 -3 -23 -21 -55 -22 -72 -2 -14 17 -46 20 -55 4 -4 -6 -14 -8
-22 -5 -9 4 -21 -1 -28 -10 -18 -26 -32 -10 -38 47 -4 29 -11 57 -17 63 -5 5
-10 27 -10 48 0 21 -8 50 -17 65 -14 20 -17 53 -19 167 -1 77 -3 146 -3 152
-1 7 -11 14 -22 17 -21 6 -22 11 -17 74 7 78 -1 117 -23 121 -18 3 -41 -40
-43 -78 -1 -15 -7 -25 -16 -25 -16 0 -17 19 -5 85 7 35 7 35 -10 12 -20 -27
-30 -22 -39 20 -7 32 -8 32 -21 13 -8 -11 -20 -27 -27 -35 -7 -8 -18 -48 -25
-88 -12 -80 -22 -98 -47 -89 -13 5 -15 15 -10 47 5 32 4 40 -9 40 -9 0 -17 10
-19 26 -2 15 -11 32 -21 38 -15 9 -21 6 -36 -14 -16 -20 -21 -22 -35 -11 -9 7
-16 23 -16 35 0 11 -4 27 -9 35 -17 26 -23 -9 -21 -117 4 -172 3 -167 25 -168
11 -1 26 -2 33 -3 10 -1 13 -13 10 -43 l-3 -43 55 4 c30 2 58 8 62 14 5 9 10
9 19 0 10 -10 9 -14 -4 -19 -9 -3 -17 -14 -17 -23 0 -10 -11 -28 -24 -40 l-24
-23 -18 21 c-25 28 -51 27 -50 -1 1 -20 -4 -23 -49 -24 -27 -1 -60 2 -72 7
-13 5 -25 4 -28 -1 -8 -14 -35 -13 -35 1 0 6 9 13 21 16 16 5 19 11 14 30 -4
18 -1 29 12 39 17 13 17 13 1 14 -10 0 -18 -5 -18 -11 0 -7 -21 -8 -65 -4 -63
7 -64 7 -94 -25 -23 -26 -39 -34 -75 -37 -55 -4 -69 14 -43 55 14 25 14 27 -6
37 -26 13 -35 45 -13 45 8 0 27 -22 43 -50 28 -50 42 -62 44 -37 6 65 3 90
-13 98 -20 11 -24 44 -7 55 6 3 16 1 22 -5 7 -7 14 -7 24 0 7 6 20 9 28 5 22
-8 18 -42 -6 -60 -30 -21 -21 -51 16 -51 23 0 30 5 35 25 l6 25 14 -25 13 -25
14 30 c8 19 11 48 7 77 -4 33 -1 53 11 71 12 18 15 43 13 91 -3 70 -20 90 -28
34 -4 -25 -11 -34 -29 -36 -13 -2 -26 -12 -28 -23 -7 -25 -20 -24 -33 1 -6 12
-21 20 -35 20 -22 0 -25 5 -25 34 0 36 -21 62 -44 53 -8 -3 -16 -26 -20 -54
-5 -47 -11 -90 -14 -105 -1 -5 -8 -8 -16 -8 -9 0 -16 -16 -20 -45 -13 -81 -35
-64 -37 28 -1 62 -10 98 -24 98 -15 -1 -27 -171 -14 -188 7 -7 9 -29 6 -51 -6
-39 14 -94 27 -73 4 6 14 11 22 11 13 0 14 -8 9 -38 -8 -47 11 -70 44 -53 25
14 161 15 161 1 0 -22 -45 -27 -225 -24 -180 3 -190 4 -199 24 -5 11 -15 20
-21 20 -7 0 -15 9 -18 20 -6 23 -37 27 -37 5 0 -7 8 -18 18 -24 18 -10 20 -9
-38 -28 -13 -4 -12 -6 3 -17 27 -21 21 -37 -10 -30 -15 4 -33 7 -40 6 -68 -8
-90 1 -59 24 17 12 22 12 38 -2 28 -26 34 5 10 57 -20 43 -20 43 1 71 22 30
47 37 47 13 0 -23 27 -18 35 8 4 12 8 27 9 32 1 10 9 15 25 15 6 0 11 -23 13
-52 2 -28 8 -53 14 -55 8 -3 14 34 19 119 9 166 6 202 -21 206 -14 2 -24 -5
-32 -23 -17 -37 -34 -21 -31 29 4 95 -11 105 -30 19 -20 -89 -18 -85 -41 -73
-15 8 -20 21 -20 55 0 45 -13 67 -24 39 -3 -9 -6 -31 -6 -49 0 -45 -18 -54
-24 -13 -10 68 -13 128 -6 133 3 2 128 6 276 9 366 8 728 17 731 19 1 1 76 3
167 4 120 2 167 -1 173 -10z m-5567 -26 c0 -14 -18 -23 -30 -16 -6 4 -8 11 -5
16 8 12 35 12 35 0z m690 0 c0 -14 -18 -23 -31 -15 -8 4 -7 9 2 15 18 11 29
11 29 0z m2819 -10 c8 -12 5 -100 -6 -206 -6 -53 -12 -71 -25 -73 -16 -3 -18
2 -33 91 -7 42 -26 45 -35 6 -7 -30 -34 -32 -38 -1 -2 14 -10 22 -22 22 -27 0
-34 17 -10 23 24 6 28 58 6 76 -15 13 -16 11 -30 -52 -7 -31 -29 -32 -35 -1
-2 10 -14 32 -27 47 -36 42 -29 68 21 79 40 9 227 0 234 -11z m677 -66 c2 -44
5 -170 6 -279 l3 -200 -90 -3 c-124 -5 -138 -1 -130 40 4 18 13 38 20 46 11
12 10 17 -5 30 -17 14 -18 21 -9 61 12 51 2 161 -15 172 -6 4 -18 -2 -27 -14
l-17 -21 -26 28 -26 28 -1 -44 c-3 -92 1 -252 5 -257 3 -3 9 4 12 14 4 10 14
27 22 37 14 16 14 19 -3 31 -15 11 -17 21 -11 61 7 46 24 85 37 85 3 0 6 -21
6 -47 0 -102 4 -172 12 -199 5 -19 3 -38 -6 -56 -12 -25 -19 -28 -62 -28 l-48
0 -7 46 c-3 26 -7 113 -7 193 -1 80 -4 137 -6 126 -7 -27 -23 -46 -34 -39 -5
3 -9 38 -9 79 0 41 -4 76 -9 79 -12 7 -21 -54 -21 -140 0 -39 -3 -74 -7 -77
-8 -8 -43 22 -43 36 0 17 -32 47 -50 47 -10 0 -26 -12 -35 -27 -16 -24 -18
-25 -28 -8 -5 10 -12 62 -15 114 -2 53 -11 108 -18 122 -24 48 -16 49 324 47
l314 -3 4 -80z m3134 75 c0 -5 -7 -10 -15 -10 -8 0 -15 5 -15 10 0 6 7 10 15
10 8 0 15 -4 15 -10z m-7256 -25 c-18 -27 -54 -34 -54 -10 0 8 9 15 19 15 11
0 23 5 26 10 3 6 11 10 16 10 5 0 2 -11 -7 -25z m6106 15 c0 -5 -7 -10 -15
-10 -8 0 -15 5 -15 10 0 6 7 10 15 10 8 0 15 -4 15 -10z m-5874 -21 c10 -17
-13 -36 -27 -22 -12 12 -4 33 11 33 5 0 12 -5 16 -11z m281 -2 c-2 -7 -10 -12
-18 -13 -8 0 -22 -4 -32 -8 -21 -10 -32 -2 -24 18 7 17 80 20 74 3z m237 4 c7
-10 -17 -21 -45 -21 -19 0 -25 11 -12 23 9 10 51 8 57 -2z m554 1 c23 -3 42
-8 42 -11 0 -11 -85 -32 -102 -26 -21 8 -58 -64 -58 -114 0 -32 -23 -71 -42
-71 -5 0 -13 11 -18 25 -5 14 -16 25 -24 25 -17 0 -26 -51 -23 -137 2 -35 1
-63 -1 -63 -2 0 -12 5 -23 10 -15 9 -19 22 -20 68 0 31 -4 80 -8 107 l-7 50
-8 -48 c-10 -58 -21 -66 -39 -30 l-15 27 -5 -40 c-3 -21 -5 -82 -4 -134 3
-112 -8 -212 -25 -240 -14 -21 -43 -27 -53 -10 -3 6 5 10 18 10 42 0 43 45 2
104 -27 40 -32 54 -24 73 5 15 5 31 0 42 -6 10 -8 27 -5 38 3 12 1 30 -5 42
-9 16 -9 26 0 42 9 17 7 23 -10 36 -12 8 -21 20 -21 28 0 7 -11 26 -24 42 -23
27 -31 60 -28 109 2 15 14 27 40 38 30 13 74 15 242 14 113 -1 224 -3 248 -6z
m1712 -11 c0 -5 -10 -11 -22 -14 -18 -5 -19 -9 -9 -21 13 -16 6 -56 -10 -56
-11 0 -15 10 -24 63 -6 37 -6 37 30 37 19 0 35 -4 35 -9z m-2420 -62 c0 -22 5
-29 20 -29 13 0 20 -7 20 -19 0 -23 19 -32 43 -19 12 6 16 16 12 29 -7 22 -2
23 26 9 24 -14 24 -32 -1 -55 -25 -22 -26 -41 -2 -50 11 -4 22 1 31 14 7 12
21 21 31 21 15 0 18 -8 16 -40 -3 -51 -8 -55 -47 -36 -18 9 -40 16 -51 16 -12
0 -18 7 -18 24 0 29 -19 44 -30 25 -6 -9 -15 -10 -32 -3 -34 14 -73 6 -103
-22 -32 -30 -33 -30 -45 1 -9 24 -30 35 -30 15 0 -16 -37 -12 -44 5 -3 8 -13
15 -21 15 -12 0 -16 -8 -13 -27 l3 -28 -119 2 c-104 1 -121 4 -139 21 -19 20
-19 20 2 32 12 6 26 23 32 37 9 25 10 25 29 8 17 -15 22 -16 36 -5 13 11 17
11 24 1 4 -8 12 -11 18 -7 6 4 2 16 -11 31 -19 21 -24 22 -33 10 -6 -8 -16
-15 -23 -15 -18 0 -13 28 10 51 16 16 27 19 47 13 15 -4 37 -6 49 -6 28 2 41
-18 19 -30 -20 -11 -21 -28 -1 -28 8 0 15 7 15 15 0 10 10 15 29 15 25 0 31
-5 36 -30 5 -24 12 -30 34 -30 14 0 36 7 47 15 12 8 24 11 28 8 3 -4 17 0 31
7 18 10 24 19 19 32 -3 12 1 27 12 39 22 24 44 9 44 -32z m2214 22 c-1 -18 4
-21 19 -17 28 7 56 -14 73 -53 29 -69 4 -83 -49 -27 -18 18 -40 36 -51 40 -11
4 -16 12 -12 22 3 8 2 24 -4 33 -10 20 -3 34 14 28 6 -2 11 -14 10 -26z
m-2317 -27 c-9 -9 -28 6 -21 18 4 6 10 6 17 -1 6 -6 8 -13 4 -17z m2152 20
c24 -5 31 -12 31 -30 0 -14 5 -33 12 -44 10 -15 9 -22 -4 -37 -9 -10 -18 -40
-19 -67 -3 -43 0 -50 19 -57 36 -14 25 -28 -19 -26 -41 2 -42 3 -60 57 -22 68
-23 104 -4 120 13 11 12 14 -7 29 -17 15 -19 21 -9 39 13 24 15 25 60 16z
m-2697 -71 c-9 -14 -10 -14 -16 5 -9 29 3 51 16 28 5 -10 5 -23 0 -33z m5496
29 c2 -7 -6 -12 -17 -12 -21 0 -27 11 -14 24 9 9 26 2 31 -12z m-5681 -27 c8
-21 3 -24 -29 -18 -16 3 -28 12 -28 19 0 19 49 18 57 -1z m343 7 c0 -13 -12
-22 -22 -16 -10 6 -1 24 13 24 5 0 9 -4 9 -8z m5790 -8 c0 -11 -5 -14 -16 -10
-9 3 -18 6 -20 6 -3 0 -2 5 1 10 10 16 35 12 35 -6z m-5880 -13 c0 -11 3 -27
6 -35 4 -12 -4 -20 -30 -31 -45 -19 -62 -19 -70 1 -9 22 12 45 38 42 14 -2 24
5 31 20 12 27 25 29 25 3z m3097 4 c13 -14 13 -19 -1 -50 -20 -41 -59 -56 -83
-32 -20 20 -10 35 30 45 25 7 31 14 30 30 -3 26 3 28 24 7z m2933 -20 c0 -12
-21 -25 -41 -25 -17 0 -9 38 9 43 22 5 32 -1 32 -18z m-2804 -32 c-11 -11 -19
6 -11 24 8 17 8 17 12 0 3 -10 2 -21 -1 -24z m2074 10 c-1 -27 -1 -27 -15 -9
-19 25 -19 36 0 36 10 0 15 -10 15 -27z m77 -9 c-3 -19 -1 -46 5 -60 10 -21 8
-28 -10 -47 -21 -20 -23 -20 -39 -4 -16 15 -16 18 0 35 10 11 17 35 17 59 0
40 6 53 23 53 5 0 7 -15 4 -36z m1477 26 c28 -10 35 -41 14 -58 -15 -12 -48
-1 -67 22 -12 14 -11 19 5 31 23 17 18 17 48 5z m-5546 -18 c2 -7 -3 -12 -12
-12 -9 0 -16 7 -16 16 0 17 22 14 28 -4z m1509 -13 c-3 -10 1 -23 9 -30 18
-15 18 -59 0 -59 -7 0 -30 7 -50 15 -36 15 -50 45 -21 45 9 0 18 8 22 18 15
42 51 53 40 11z m4203 6 c0 -7 14 -25 32 -38 29 -23 30 -26 15 -42 -10 -9 -17
-22 -17 -30 0 -29 -60 -33 -78 -5 -15 25 -33 25 -64 0 -14 -10 -28 -16 -32
-13 -14 15 -4 44 19 55 19 8 24 17 20 32 -3 12 -2 15 1 9 3 -7 14 -13 25 -13
14 0 19 7 19 25 0 17 7 28 23 34 25 10 37 6 37 -14z m530 4 c0 -5 -9 -9 -20
-9 -19 0 -26 11 -14 23 8 8 34 -3 34 -14z m-2417 -26 c5 -44 2 -48 -38 -56
-44 -8 -59 4 -50 42 7 32 25 43 25 16 0 -8 5 -15 10 -15 6 0 10 8 10 18 0 47
37 42 43 -5z m1397 24 c0 -7 16 -21 35 -31 31 -17 35 -24 35 -58 0 -32 -4 -40
-25 -48 -14 -5 -29 -9 -33 -8 -4 2 -19 -10 -34 -25 -18 -18 -38 -27 -58 -27
-33 0 -40 19 -15 40 8 7 15 21 15 31 0 26 17 32 23 9 8 -33 37 -25 37 10 0 32
23 42 34 15 8 -22 26 -18 26 5 0 28 -37 58 -81 65 -38 7 -46 14 -32 28 12 13
73 8 73 -6z m-6472 -14 c-4 -22 -22 -20 -26 1 -2 10 3 16 13 16 10 0 15 -7 13
-17z m512 -18 c0 -8 -7 -15 -15 -15 -8 0 -15 7 -15 15 0 8 7 15 15 15 8 0 15
-7 15 -15z m630 5 c8 -5 11 -12 8 -16 -10 -9 -38 3 -38 16 0 12 10 13 30 0z
m3138 -14 c6 -31 -16 -43 -27 -15 -5 13 -7 28 -4 32 8 13 28 2 31 -17z m-3023
-17 c10 -15 -1 -23 -20 -15 -9 3 -13 10 -10 16 8 13 22 13 30 -1z m1805 -23
c0 -17 -9 -27 -32 -35 -18 -7 -46 -19 -61 -27 -36 -18 -56 -19 -39 -2 7 7 12
20 12 30 0 22 35 41 60 33 13 -4 22 1 30 15 13 25 30 17 30 -14z m2136 24 c8
0 14 -10 14 -22 0 -20 -1 -20 -18 -5 -10 10 -33 17 -51 17 -21 0 -30 4 -25 11
4 6 19 9 36 5 17 -3 37 -6 44 -6z m-4006 -6 c0 -10 -28 -34 -39 -34 -14 0 -14
13 1 28 12 12 38 17 38 6z m-1232 -24 c7 0 11 -3 9 -7 -3 -5 -58 -7 -124 -6
-65 1 -142 2 -172 3 -30 0 -51 3 -47 8 11 10 233 18 281 10 22 -4 46 -7 53 -8z
m4227 -11 c-9 -14 -45 -11 -45 4 0 8 3 17 6 20 10 9 46 -12 39 -24z m3223 10
c-2 -12 -13 -25 -25 -30 -18 -7 -21 -5 -16 9 15 42 47 58 41 21z m-7314 2 c3
-5 0 -11 -7 -13 -20 -8 -87 3 -81 13 7 12 81 12 88 0z m124 0 c21 -13 -4 -19
-57 -13 -29 3 -39 7 -30 13 18 11 70 11 87 0z m490 -36 c22 -8 13 -35 -15 -46
-15 -6 -31 -15 -34 -21 -5 -8 -22 -7 -59 5 -66 21 -119 22 -126 2 -4 -8 -10
-15 -14 -15 -10 0 -19 74 -9 80 8 6 237 1 257 -5z m2146 6 c4 -5 -12 -12 -34
-16 -45 -8 -50 -17 -18 -39 12 -9 20 -16 18 -17 -56 -12 -116 2 -75 17 9 4 22
19 31 35 11 22 22 29 44 29 16 0 31 -4 34 -9z m-1591 -33 c12 -28 12 -34 0
-41 -7 -4 -13 -15 -13 -22 0 -8 -4 -15 -10 -15 -5 0 -10 -7 -10 -15 0 -8 -7
-15 -15 -15 -20 0 -19 26 1 34 13 5 11 11 -10 39 -37 48 -34 67 9 67 30 0 37
-5 48 -32z m5393 17 c8 -20 -13 -45 -37 -45 -19 0 -35 33 -24 50 10 16 55 12
61 -5z m-5546 -15 c0 -21 -33 -29 -45 -10 -9 15 4 30 26 30 12 0 19 -7 19 -20z
m-750 0 l35 0 -27 -14 c-15 -8 -37 -12 -48 -9 -13 4 -29 -2 -44 -16 -25 -23
-37 -25 -101 -15 -39 6 -55 18 -55 41 0 16 30 20 125 17 44 -2 96 -3 115 -4z
m4861 -10 c-12 -46 -11 -58 3 -73 15 -15 15 -17 -3 -27 -27 -14 -36 -13 -22 4
9 11 9 16 1 21 -7 4 -10 18 -7 31 2 13 -2 29 -9 35 -19 15 -7 31 19 27 14 -2
21 -9 18 -18z m1349 5 c0 -8 -6 -15 -14 -15 -9 0 -16 -12 -18 -27 -2 -24 -8
-29 -36 -31 -28 -3 -33 0 -30 15 1 10 18 24 36 32 17 8 32 21 32 28 0 7 7 13
15 13 8 0 15 -7 15 -15z m875 -5 c0 -22 -29 -18 -33 3 -3 14 1 18 15 15 10 -2
18 -10 18 -18z m-7717 -17 c3 -22 0 -23 -55 -23 -78 0 -99 14 -53 34 19 9 51
15 70 13 28 -2 36 -7 38 -24z m360 10 c-2 -11 -12 -17 -23 -16 -10 1 -24 -6
-31 -15 -7 -9 -28 -17 -53 -18 -35 -2 -41 1 -41 17 0 26 51 48 108 49 36 0 43
-3 40 -17z m3492 -29 c0 -15 -53 -20 -84 -8 -23 9 -20 29 6 41 26 11 78 -10
78 -33z m-3735 5 c4 -10 3 -23 0 -29 -9 -15 -51 -12 -65 5 -10 13 -10 19 4 34
20 22 53 17 61 -10z m3605 -4 c0 -8 -4 -17 -10 -20 -6 -4 -10 5 -10 20 0 15 4
24 10 20 6 -3 10 -12 10 -20z m2605 14 c10 -15 -1 -23 -20 -15 -9 3 -13 10
-10 16 8 13 22 13 30 -1z m65 -4 c0 -8 -7 -15 -15 -15 -8 0 -15 7 -15 15 0 8
7 15 15 15 8 0 15 -7 15 -15z m682 0 c0 -5 -5 -11 -11 -13 -6 -2 -11 4 -11 13
0 9 5 15 11 13 6 -2 11 -8 11 -13z m-4442 -2 c-8 -3 -21 -12 -27 -21 -11 -14
-13 -14 -13 -1 0 21 10 29 34 28 14 0 16 -2 6 -6z m100 -1 c0 -11 -37 -32 -44
-25 -8 9 14 33 30 33 8 0 14 -3 14 -8z m4710 -6 c0 -8 -4 -18 -10 -21 -5 -3
-10 -4 -10 -1 0 2 -3 11 -6 20 -4 11 -1 16 10 16 9 0 16 -6 16 -14z m-6000
-16 c0 -6 -7 -13 -15 -16 -8 -4 -15 -12 -15 -20 0 -8 -9 -14 -20 -14 -27 0
-25 24 3 43 26 19 47 21 47 7z m1465 -11 c9 -28 4 -31 -33 -17 -40 16 -42 38
-3 38 21 0 32 -6 36 -21z m-2245 1 c0 -5 -7 -10 -15 -10 -8 0 -15 5 -15 10 0
6 7 10 15 10 8 0 15 -4 15 -10z m203 -8 c42 -20 39 -29 -21 -63 -43 -23 -44
-23 -58 -4 -9 13 -11 22 -4 29 5 5 10 20 10 33 0 28 22 30 73 5z m391 -26 c-3
-9 -14 -16 -25 -16 -10 0 -23 -10 -30 -21 -9 -17 -13 -19 -20 -8 -13 22 -11
29 11 29 12 0 26 12 36 32 13 26 18 29 25 16 5 -9 6 -23 3 -32z m-513 12 c10
-13 18 -27 19 -31 0 -12 -54 -56 -62 -50 -5 2 -8 26 -8 54 0 56 18 65 51 27z
m6247 -1 c2 -10 -3 -17 -11 -17 -8 0 -18 -7 -21 -16 -4 -9 -9 -14 -13 -11 -3
4 0 20 7 37 13 32 33 35 38 7z m-7105 -2 c1 -5 -6 -11 -15 -13 -11 -2 -18 3
-18 13 0 17 30 18 33 0z m2361 -17 c5 -15 7 -31 3 -34 -11 -11 -101 -16 -115
-6 -20 14 -4 62 20 62 16 0 19 -5 15 -21 -3 -12 0 -22 9 -26 21 -8 27 2 15 25
-12 23 -4 34 23 30 12 -2 25 -15 30 -30z m789 17 c1 -5 -6 -11 -15 -13 -11 -2
-18 3 -18 13 0 17 30 18 33 0z m819 -2 c0 -10 0 -28 -1 -40 -1 -13 3 -23 9
-23 13 0 13 -37 0 -45 -5 -3 -19 -1 -30 5 -21 11 -26 51 -14 98 7 26 33 30 36
5z m3258 -30 c0 -29 -14 -30 -34 -1 -25 35 -21 50 9 36 16 -7 25 -19 25 -35z
m-1672 10 c2 -8 -5 -13 -17 -13 -21 0 -35 13 -24 24 10 10 36 3 41 -11z m1742
3 c0 -20 -26 -40 -35 -26 -10 16 2 40 20 40 8 0 15 -6 15 -14z m-6970 -11 c0
-8 -6 -15 -14 -15 -17 0 -28 14 -19 24 12 12 33 6 33 -9z m7370 -7 c0 -16 -3
-19 -11 -11 -6 6 -8 16 -5 22 11 17 16 13 16 -11z m-6135 2 c3 -5 15 -10 26
-10 25 0 59 -34 61 -63 1 -12 -5 -36 -14 -52 -9 -17 -19 -38 -22 -47 -3 -10
-11 -18 -17 -18 -14 0 -3 68 14 88 8 10 7 16 -4 23 -22 14 -27 11 -44 -21 -10
-18 -13 -40 -9 -56 5 -20 3 -25 -7 -22 -9 3 -15 23 -17 56 -3 45 -6 52 -23 52
-18 0 -20 -4 -14 -30 7 -34 -10 -42 -20 -10 -3 11 -13 20 -21 20 -23 0 -18 51
6 57 11 3 20 9 20 14 0 5 11 9 25 9 14 0 25 5 25 10 0 6 6 10 14 10 8 0 18 -4
21 -10z m235 -10 c0 -16 -7 -20 -30 -20 -16 0 -33 0 -37 -1 -20 -1 -12 30 9
34 49 9 58 7 58 -13z m880 10 c13 -9 13 -11 0 -19 -16 -11 -43 5 -34 20 7 11
15 11 34 -1z m-2580 -29 c15 -30 13 -31 -25 -15 -20 8 -41 14 -48 13 -35 -4
-36 5 -2 11 63 11 64 11 75 -9z m2875 0 c0 -25 -32 -37 -52 -20 -13 12 -37 15
-93 13 -77 -2 -94 1 -85 16 3 4 56 7 117 6 89 -1 113 -4 113 -15z m895 -11 c0
-23 -5 -30 -19 -30 -51 0 -68 29 -28 48 37 18 47 14 47 -18z m3647 -16 c-8 -8
-47 29 -40 39 3 4 14 -1 25 -13 11 -12 18 -24 15 -26z m-3470 2 c-4 -9 -11
-16 -17 -16 -11 0 -14 33 -3 44 11 10 26 -11 20 -28z m3139 10 c24 -18 15 -27
-25 -28 -38 -1 -48 7 -31 27 16 19 31 19 56 1z m-6782 -5 c3 -4 -3 -16 -13
-25 -17 -15 -19 -16 -25 -1 -3 9 -6 21 -6 26 0 11 37 12 44 0z m966 -18 c0
-19 -3 -24 -10 -17 -6 6 -8 18 -4 27 9 24 14 21 14 -10z m924 -12 c8 -12 -21
-34 -34 -26 -17 11 -11 35 9 35 11 0 22 -4 25 -9z m183 -6 c6 -20 -22 -43 -59
-48 -28 -4 -38 -2 -38 8 0 7 9 16 19 20 11 3 22 13 25 21 6 17 47 16 53 -1z
m2209 -34 c9 -12 15 -12 35 2 43 30 119 17 105 -18 -5 -13 -14 -15 -45 -10
-24 4 -42 2 -46 -4 -3 -6 -14 -11 -23 -11 -20 1 -62 34 -62 49 0 6 -4 11 -10
11 -5 0 -10 7 -10 17 0 14 3 14 22 -3 13 -10 28 -25 34 -33z m338 27 c8 -13 6
-22 -8 -37 -28 -31 -36 -26 -36 20 0 32 3 40 16 37 9 -2 22 -11 28 -20z m526
7 c0 -8 -4 -15 -9 -15 -13 0 -22 16 -14 24 11 11 23 6 23 -9z m-4705 -51 c6
-43 -5 -77 -20 -62 -8 8 -15 100 -9 110 10 17 22 -3 29 -48z m1893 46 c-20
-12 -13 -48 10 -52 12 -2 10 -7 -10 -20 -26 -17 -26 -17 -30 13 -5 31 15 69
35 69 7 0 5 -5 -5 -10z m2442 0 c0 -5 -6 -10 -14 -10 -8 0 -18 5 -21 10 -3 6
3 10 14 10 12 0 21 -4 21 -10z m-5071 -14 c9 -11 -4 -14 -74 -20 -48 -4 -92
-3 -102 2 -15 9 -14 10 3 14 10 3 46 6 79 7 33 1 62 4 64 7 8 7 18 4 30 -10z
m1793 -3 c46 -7 57 -31 26 -55 -31 -23 -65 -23 -78 2 -7 14 -21 20 -43 20 -18
0 -38 5 -45 12 -9 9 -13 7 -18 -7 -5 -13 1 -25 21 -42 31 -27 23 -47 -16 -41
-22 3 -24 8 -24 57 l0 54 50 5 c28 2 52 6 54 8 3 3 12 2 20 -2 9 -3 33 -8 53
-11z m160 -17 c-3 -27 -10 -37 -32 -45 -22 -7 -32 -6 -41 5 -18 22 -4 42 26
36 21 -3 27 0 32 17 9 34 19 24 15 -13z m833 7 c-22 -15 -129 -18 -120 -3 3 6
28 10 55 10 27 0 52 5 55 10 4 6 11 7 17 4 7 -5 4 -12 -7 -21z m1043 17 c34 0
26 -17 -12 -24 -42 -8 -67 1 -59 21 4 9 13 13 27 9 11 -3 31 -6 44 -6z m97
-10 c8 -13 -20 -24 -41 -16 -20 8 -9 26 16 26 10 0 22 -5 25 -10z m-3615 -7
c0 -14 -19 -38 -25 -32 -8 8 5 39 16 39 5 0 9 -3 9 -7z m4130 -3 c0 -5 -9 -10
-19 -10 -11 0 -23 5 -26 10 -4 6 5 10 19 10 14 0 26 -4 26 -10z m70 -15 c0
-16 -6 -25 -15 -25 -9 0 -15 9 -15 25 0 16 6 25 15 25 9 0 15 -9 15 -25z
m1974 -7 c-9 -14 -23 2 -17 18 4 12 8 13 14 3 4 -7 5 -17 3 -21z m-5640 0 c-9
-32 -11 -33 -40 -19 -28 13 -24 25 11 34 35 8 36 7 29 -15z m1340 3 c8 -12
-21 -34 -34 -26 -17 11 -11 35 9 35 11 0 22 -4 25 -9z m1905 0 c9 -6 22 -6 33
0 13 7 25 6 40 -6 13 -8 32 -15 44 -15 11 0 29 -9 39 -20 13 -14 31 -20 64
-20 35 0 49 -5 59 -20 11 -18 10 -20 -11 -20 -13 0 -27 3 -30 6 -4 4 -23 8
-44 9 -21 1 -56 9 -78 18 -22 9 -59 16 -81 17 -24 0 -47 6 -54 15 -7 8 -25 15
-41 15 -15 0 -30 4 -34 9 -10 18 70 27 94 12z m1531 -6 c0 -8 -7 -15 -15 -15
-8 0 -15 7 -15 15 0 8 7 15 15 15 8 0 15 -7 15 -15z m1045 5 c7 -11 -39 -25
-55 -15 -5 3 -8 11 -5 16 8 12 52 12 60 -1z m-5445 -25 c0 -2 -5 -16 -12 -30
-8 -18 -14 -22 -20 -13 -15 24 -9 48 12 48 11 0 20 -2 20 -5z m78 -7 c-6 -18
-28 -21 -28 -4 0 9 7 16 16 16 9 0 14 -5 12 -12z m92 -3 c0 -8 0 -18 1 -22 0
-4 -4 -9 -10 -11 -6 -2 -11 8 -11 22 0 14 5 26 10 26 6 0 10 -7 10 -15z m630
-13 c0 -23 -35 -52 -63 -52 -21 0 -20 2 11 31 17 16 32 35 32 40 0 6 5 7 10 4
6 -3 10 -14 10 -23z m5525 18 c4 -6 2 -17 -4 -24 -6 -7 -9 -20 -5 -29 10 -28
-31 -57 -83 -57 -37 0 -53 -6 -74 -26 -25 -24 -29 -25 -49 -11 -12 8 -28 27
-35 41 -13 24 -12 26 7 26 11 0 27 -8 35 -17 13 -16 14 -15 8 10 -5 25 -3 28
14 22 14 -4 21 1 29 24 8 23 15 28 31 24 26 -7 35 -19 21 -28 -13 -8 -13 -35
0 -35 24 0 70 45 70 67 0 24 23 32 35 13z m225 -7 c0 -10 -32 -43 -42 -43 -15
0 -8 29 10 39 20 12 32 14 32 4z m-2780 -7 c0 -2 3 -11 6 -20 4 -11 0 -16 -13
-16 -25 0 -33 8 -26 26 4 12 33 21 33 10z m-4813 -22 c2 -7 -16 -12 -52 -13
-43 -1 -55 2 -55 15 0 12 10 14 52 12 28 -2 53 -8 55 -14z m376 6 c9 0 17 -4
17 -10 0 -11 -79 -14 -107 -3 -16 6 -15 8 7 14 14 4 34 6 45 3 11 -2 28 -4 38
-4z m1312 1 c8 -14 -13 -24 -33 -16 -14 5 -14 7 -2 15 19 12 27 12 35 1z m305
-5 c0 -8 -4 -17 -9 -20 -10 -7 -23 19 -14 28 11 11 23 6 23 -8z m5518 2 c7 -7
12 -20 12 -30 0 -13 -8 -18 -30 -18 -25 0 -30 4 -30 24 0 21 10 32 31 35 3 1
10 -4 17 -11z m-788 -8 c0 -13 -11 -13 -30 0 -12 8 -11 10 8 10 12 0 22 -4 22
-10z m340 -21 c0 -10 -7 -19 -15 -19 -15 0 -21 31 -9 43 11 10 24 -3 24 -24z
m-260 7 c0 -19 -17 -29 -37 -22 -12 5 -13 9 -3 21 16 19 40 19 40 1z m-6730
-16 c0 -11 -3 -20 -7 -20 -5 0 -18 -3 -30 -6 -28 -8 -31 13 -5 32 25 19 42 17
42 -6z m4300 -4 c0 -8 -5 -18 -11 -22 -14 -8 -33 11 -25 25 10 16 36 13 36 -3z
m2488 2 c-3 -7 -11 -13 -18 -13 -7 0 -15 6 -17 13 -3 7 4 12 17 12 13 0 20 -5
18 -12z m-7083 -18 c3 -5 -5 -15 -19 -22 -32 -14 -91 6 -65 23 19 12 76 11 84
-1z m1875 -5 c0 -12 -14 -15 -65 -15 -36 0 -65 4 -65 9 0 13 25 18 83 20 36 1
47 -3 47 -14z m4880 0 c0 -15 -43 -12 -48 3 -3 10 4 13 22 10 15 -2 26 -7 26
-13z m143 -10 c25 -14 51 -22 63 -19 12 3 27 -2 38 -15 18 -19 18 -21 1 -27
-10 -4 -21 -1 -27 7 -8 11 -9 11 -5 -2 3 -9 2 -20 -3 -25 -5 -5 -10 -29 -11
-53 -4 -53 10 -62 82 -54 34 4 54 1 70 -11 24 -16 76 -21 117 -10 29 8 28 38
-2 57 -29 20 -73 96 -68 120 5 24 42 22 42 -2 0 -11 14 -31 30 -44 17 -14 30
-31 30 -37 0 -6 20 -33 45 -59 25 -26 45 -53 45 -60 0 -6 5 -11 10 -11 6 0 14
-8 17 -17 4 -10 17 -35 30 -55 13 -21 23 -48 23 -62 0 -15 7 -25 20 -29 13 -3
18 -10 14 -21 -3 -9 -1 -23 6 -31 13 -15 14 -14 -35 -30 -20 -6 -19 -35 2 -35
35 0 53 -30 53 -92 0 -32 -4 -58 -10 -58 -5 0 -10 20 -10 43 0 54 -9 65 -31
35 -21 -27 -26 -23 -44 29 -10 30 -20 39 -46 46 -19 5 -38 13 -43 18 -6 5 -22
9 -36 9 -14 0 -34 6 -45 13 -28 19 -67 28 -80 17 -6 -5 -44 -5 -89 1 -66 7
-84 13 -108 36 -19 18 -38 27 -53 25 -25 -3 -43 14 -29 28 16 15 94 23 94 10
0 -7 9 -23 19 -36 18 -23 25 -24 157 -27 97 -3 152 -9 183 -21 52 -19 91 -21
114 -3 15 11 15 15 -9 44 -25 33 -26 33 -93 27 -55 -4 -70 -2 -81 11 -19 23 3
36 50 29 38 -5 67 7 56 25 -4 6 -19 11 -34 12 -38 1 -69 14 -54 23 44 27 -29
42 -108 22 -34 -9 -75 -16 -91 -16 -29 0 -35 -12 -23 -44 14 -35 104 0 104 41
0 10 8 11 28 7 59 -14 57 -24 -18 -63 -47 -23 -65 -28 -83 -21 -36 15 -57 36
-57 57 0 17 -9 22 -52 27 -29 4 -58 12 -65 17 -6 6 -41 11 -77 11 -62 1 -66 0
-101 -37 -40 -41 -36 -55 18 -55 18 0 38 -10 55 -29 15 -16 37 -34 50 -40 12
-6 22 -18 22 -26 0 -8 6 -15 14 -15 23 0 30 -20 12 -38 -14 -15 -19 -14 -60
15 -35 25 -53 31 -95 31 -40 0 -54 -4 -62 -19 -13 -25 -35 -24 -42 2 -9 33
-32 16 -32 -23 0 -43 -7 -52 -34 -43 -13 4 -21 15 -21 29 0 29 -24 63 -34 48
-11 -17 -128 -15 -162 3 -16 8 -37 15 -46 15 -9 0 -20 4 -23 10 -9 14 40 23
90 15 36 -5 46 -3 51 9 3 8 21 20 40 26 27 9 33 16 29 30 -5 17 0 18 57 15 35
-1 73 -6 86 -10 23 -8 32 8 11 20 -6 4 -8 22 -4 46 6 34 4 39 -17 44 -13 3
-54 4 -93 3 -38 -1 -112 0 -163 1 -78 3 -96 0 -112 -14 -20 -18 -20 -17 -20
18 0 20 4 38 9 42 5 3 64 6 130 8 107 2 120 4 125 21 6 24 30 16 34 -12 5 -31
40 -29 52 3 13 34 47 33 60 -1 8 -20 15 -24 28 -19 9 4 35 8 57 8 32 1 41 -3
43 -19 5 -26 21 -42 30 -28 4 6 34 15 67 20 l60 9 -4 45 c-4 56 -8 61 -31 33
-22 -27 -55 -30 -65 -5 -6 15 -8 15 -25 -5 -10 -13 -25 -23 -34 -23 -20 0 -21
36 -1 44 8 3 15 16 15 28 0 20 51 88 66 88 3 0 24 -11 47 -25z m-4923 1 c0
-20 -19 -31 -32 -18 -6 6 -7 15 -4 21 10 16 36 13 36 -3z m-270 -16 c0 -11 -7
-20 -15 -20 -8 0 -15 9 -15 20 0 11 7 20 15 20 8 0 15 -9 15 -20z m-1225 0 c4
-6 -5 -10 -19 -10 -14 0 -26 5 -26 10 0 6 9 10 19 10 11 0 23 -4 26 -10z m323
-32 c-2 -22 -9 -34 -20 -36 -20 -4 -22 6 -8 42 14 37 32 32 28 -6z m82 23 c0
-11 -39 -21 -45 -11 -2 4 -2 10 2 14 10 9 43 7 43 -3z m211 -4 c-1 -4 -1 -15
-1 -24 0 -15 -2 -16 -10 -3 -13 20 -13 43 1 38 6 -2 10 -7 10 -11z m3599 3 c0
-13 -20 -13 -40 0 -12 8 -9 10 13 10 15 0 27 -4 27 -10z m-487 -20 c54 -24 65
-36 39 -44 -25 -8 -112 31 -112 49 0 20 19 19 73 -5z m-2394 -6 c2 -2 -12 -4
-32 -4 -20 0 -37 4 -37 10 0 8 58 3 69 -6z m80 7 c16 -10 6 -31 -14 -31 -17 0
-28 17 -20 30 8 12 16 12 34 1z m2581 -1 c0 -5 -7 -10 -15 -10 -8 0 -15 5 -15
10 0 6 7 10 15 10 8 0 15 -4 15 -10z m1240 1 c0 -10 -30 -24 -37 -17 -3 3 -2
9 2 15 8 13 35 15 35 2z m1632 -54 c25 -34 55 -71 67 -81 12 -11 21 -28 21
-38 0 -10 7 -21 15 -24 16 -6 21 -44 6 -44 -5 0 -15 10 -23 23 -9 12 -45 57
-82 100 -42 50 -66 87 -66 103 0 13 4 24 8 24 5 0 29 -28 54 -63z m521 48 c1
-5 -6 -11 -15 -13 -11 -2 -18 3 -18 13 0 17 30 18 33 0z m-3053 -5 c0 -5 -11
-10 -25 -10 -14 0 -25 5 -25 10 0 6 11 10 25 10 14 0 25 -4 25 -10z m1478 -23
c2 -12 -3 -17 -17 -17 -15 0 -21 6 -21 21 0 25 33 22 38 -4z m-4893 3 c3 -5 3
-15 0 -20 -7 -12 -45 5 -45 20 0 13 37 13 45 0z m2585 0 c0 -5 -7 -10 -15 -10
-8 0 -15 5 -15 10 0 6 7 10 15 10 8 0 15 -4 15 -10z m3148 -28 c2 -23 -2 -33
-18 -42 -30 -16 -33 -9 -20 40 13 48 33 49 38 2z m-2475 11 c9 -3 17 -12 17
-20 0 -23 -40 -11 -59 17 -15 23 -15 24 4 16 11 -5 28 -11 38 -13z m277 7 c0
-12 -34 -12 -70 0 -20 7 -16 8 23 9 26 1 47 -3 47 -9z m2547 -21 c6 -6 8 -19
6 -30 -5 -19 -7 -19 -24 -3 -11 9 -19 23 -19 31 0 16 22 17 37 2z m73 1 c0 -5
-7 -10 -15 -10 -8 0 -15 5 -15 10 0 6 7 10 15 10 8 0 15 -4 15 -10z m-2580
-10 c0 -5 -6 -10 -14 -10 -8 0 -18 5 -21 10 -3 6 3 10 14 10 12 0 21 -4 21
-10z m-4805 -19 c3 -5 1 -12 -4 -15 -13 -8 -42 4 -35 15 7 12 31 12 39 0z
m393 -26 c-2 -14 -7 -26 -13 -26 -5 0 -11 12 -13 26 -2 18 1 25 13 25 12 0 15
-7 13 -25z m3912 8 c27 -23 25 -33 -6 -33 -24 0 -25 -3 -19 -32 5 -26 4 -29
-5 -15 -6 9 -18 17 -25 17 -23 0 -18 40 8 61 27 23 23 22 47 2z m310 8 c0 -6
21 -13 48 -17 26 -4 50 -12 54 -18 4 -6 16 -11 27 -11 12 0 21 -4 21 -10 0 -6
-23 -9 -53 -8 -28 1 -65 2 -80 2 -24 1 -28 4 -22 22 6 18 4 20 -14 14 -17 -5
-21 -2 -21 14 0 14 6 21 20 21 11 0 20 -4 20 -9z m-3929 -34 c-13 -13 -26 -3
-16 12 3 6 11 8 17 5 6 -4 6 -10 -1 -17z m104 14 c3 -5 1 -13 -5 -16 -15 -9
-43 3 -35 15 8 13 32 13 40 1z m3668 -3 c12 -7 23 -13 24 -13 1 0 4 -11 8 -25
6 -24 4 -26 -37 -27 -40 -2 -42 -1 -23 13 19 14 19 16 3 28 -20 14 -24 36 -8
36 6 0 20 -6 33 -12z m507 2 c0 -5 -7 -10 -15 -10 -8 0 -15 5 -15 10 0 6 7 10
15 10 8 0 15 -4 15 -10z m180 -40 c0 -5 -7 -10 -15 -10 -8 0 -15 5 -15 10 0 6
7 10 15 10 8 0 15 -4 15 -10z m-550 -30 c8 -14 8 -26 0 -40 -11 -21 -30 -18
-30 5 0 7 -7 15 -15 19 -8 3 -15 12 -15 21 0 23 47 19 60 -5z m1218 4 c2 -1
-17 -6 -43 -9 -47 -8 -70 0 -46 15 12 7 79 3 89 -6z m-543 -4 c-3 -5 -20 -10
-36 -10 -18 0 -28 4 -24 10 3 6 20 10 36 10 18 0 28 -4 24 -10z m-446 -31 c22
-27 13 -39 -29 -38 -28 0 -86 42 -77 55 3 5 24 8 46 8 30 -2 46 -8 60 -25z
m116 1 c0 -18 -53 -26 -69 -10 -8 8 -7 13 4 21 22 14 65 7 65 -11z m2463 8
c-7 -20 -48 -23 -48 -4 0 11 9 16 26 16 16 0 24 -5 22 -12z m232 6 c0 -12 -21
-44 -29 -44 -10 0 -21 37 -13 44 7 8 42 8 42 0z m-2258 -16 c-9 -9 -15 -9 -24
0 -9 9 -7 12 12 12 19 0 21 -3 12 -12z m-1114 -46 c3 -29 1 -32 -23 -32 -14 0
-35 5 -46 10 -18 10 -18 12 8 36 35 32 57 28 61 -14z m242 29 c3 -1 -6 -10
-19 -20 -20 -15 -29 -17 -50 -8 -34 15 -34 14 -27 25 5 8 67 9 96 3z m1375 -6
c0 -13 -127 -27 -138 -16 -5 5 -6 14 -2 21 8 14 140 9 140 -5z m-865 -6 c0 -7
-11 -9 -30 -5 -38 7 -42 -19 -4 -28 32 -8 95 -73 88 -91 -4 -9 -15 -10 -42 -4
-21 4 -41 4 -47 -1 -18 -15 -85 10 -85 32 0 10 7 21 15 24 23 9 18 32 -7 36
-39 5 -27 32 17 39 67 10 95 10 95 -2z m480 1 c0 -13 -11 -13 -30 0 -12 8 -11
10 8 10 12 0 22 -4 22 -10z m-370 -29 c0 -4 -9 -16 -20 -26 -20 -18 -21 -18
-46 6 l-26 24 29 11 c28 12 63 3 63 -15z m-2150 4 c0 -8 -6 -15 -14 -15 -17 0
-28 14 -19 24 12 12 33 6 33 -9z m1658 -3 c2 -7 -3 -12 -12 -12 -9 0 -16 7
-16 16 0 17 22 14 28 -4z m950 0 c4 -14 -34 -16 -42 -3 -6 10 13 21 28 17 6
-1 12 -8 14 -14z m-2404 -28 c4 -15 2 -32 -3 -37 -12 -12 -13 -10 -15 33 -1
37 10 39 18 4z m1526 6 c0 -11 9 -28 20 -37 33 -29 24 -48 -9 -21 -29 22 -44
78 -21 78 6 0 10 -9 10 -20z m-370 -9 c15 -29 13 -31 -24 -31 -30 0 -33 2 -28
25 5 30 37 34 52 6z m230 4 c0 -11 -11 -15 -40 -15 -38 0 -49 8 -33 23 3 4 21
7 40 7 23 0 33 -5 33 -15z m638 -6 c-10 -5 -18 -16 -18 -24 0 -20 -21 -30 -30
-15 -12 19 -1 38 23 43 38 7 42 7 25 -4z m-2218 -30 c0 -5 -9 -9 -20 -9 -19 0
-27 20 -13 33 7 8 33 -11 33 -24z m1168 19 c19 -19 14 -28 -13 -28 -18 0 -25
5 -25 20 0 22 20 26 38 8z m3302 -8 c-12 -22 -25 -26 -35 -10 -5 8 19 24 43
29 1 1 -2 -8 -8 -19z m-3840 -10 c0 -5 -6 -10 -14 -10 -8 0 -18 5 -21 10 -3 6
3 10 14 10 12 0 21 -4 21 -10z m1684 -32 c13 -22 5 -30 -41 -37 -31 -6 -38
-11 -36 -28 2 -13 -6 -24 -23 -32 -34 -15 -54 -14 -54 3 0 8 -3 21 -6 29 -4
11 4 17 25 22 17 4 31 11 31 16 0 13 62 50 79 47 8 -2 19 -11 25 -20z m-3184
-17 c0 -25 -14 -34 -40 -26 -22 7 -27 31 -7 38 28 12 47 7 47 -12z m2162 -25
c42 -8 62 -41 35 -60 -8 -7 -17 -20 -19 -31 -3 -14 -11 -19 -27 -17 -16 1 -24
-4 -28 -18 -6 -23 -33 -28 -33 -6 0 8 -7 16 -15 20 -8 3 -15 12 -15 21 0 19 5
19 36 -1 23 -16 26 -15 44 1 19 18 19 18 -11 49 -29 30 -31 30 -44 12 -13 -17
-15 -17 -21 -2 -3 9 1 28 11 42 15 23 18 24 33 11 9 -8 34 -17 54 -21z m552
28 c12 -5 14 -10 6 -20 -8 -9 -8 -18 -1 -33 9 -17 8 -22 -10 -31 -14 -8 -19
-18 -16 -31 4 -15 1 -19 -11 -17 -11 2 -18 15 -20 36 -3 31 -24 44 -37 22 -10
-16 -72 -12 -79 5 -3 9 -18 15 -40 15 -46 0 -52 13 -14 29 25 11 38 12 63 2
25 -9 39 -9 59 0 14 7 26 16 26 21 0 9 51 11 74 2z m564 -37 c2 -11 -3 -17
-14 -17 -10 0 -25 -6 -33 -14 -24 -20 -77 -28 -90 -12 -9 11 -6 15 11 20 13 3
35 6 50 6 18 0 29 7 33 21 8 24 38 22 43 -4z m-378 -2 c0 -8 -7 -15 -15 -15
-8 0 -15 7 -15 15 0 8 7 15 15 15 8 0 15 -7 15 -15z m-3381 -14 c17 -11 5 -31
-19 -31 -21 0 -34 15 -25 30 8 12 25 13 44 1z m2830 -31 c11 0 21 6 24 13 2 6
8 9 12 5 19 -17 -6 -38 -45 -38 -35 0 -40 3 -40 23 0 32 13 42 22 17 4 -11 16
-20 27 -20z m-664 21 c3 -5 1 -13 -5 -16 -15 -9 -43 3 -35 15 8 13 32 13 40 1z
m772 -11 c4 -15 9 -18 18 -10 17 14 57 -9 53 -30 -5 -22 -40 -25 -55 -4 -12
16 -15 17 -23 4 -5 -8 -10 -12 -12 -10 -16 26 -24 47 -21 58 7 19 34 14 40 -8z
m-607 6 c0 -8 -51 -13 -56 -5 -3 5 9 9 25 9 17 0 31 -2 31 -4z m-90 -27 c0 -5
-7 -9 -15 -9 -15 0 -20 12 -9 23 8 8 24 -1 24 -14z m168 9 c17 -17 15 -23 -12
-36 -22 -10 -25 -8 -35 19 -9 26 -8 29 13 29 12 0 27 -5 34 -12z m1032 2 c13
-9 13 -11 0 -20 -25 -17 -50 -12 -50 10 0 22 25 27 50 10z m-690 -9 c0 -6 -4
-12 -9 -15 -13 -8 -42 4 -35 15 7 12 44 12 44 0z m2420 -21 c0 -19 -11 -26
-23 -14 -8 8 3 34 14 34 5 0 9 -9 9 -20z m-363 -7 c8 -22 -31 -53 -68 -53 -49
0 -45 33 8 56 39 17 53 17 60 -3z m-1105 -8 c-2 -10 -10 -13 -77 -29 l-30 -8
25 27 c18 19 32 25 55 23 16 -2 29 -7 27 -13z m2231 8 c11 -10 -13 -32 -29
-27 -49 15 -50 16 -29 24 25 11 50 12 58 3z m-5973 -17 c0 -21 -21 -31 -31
-15 -14 22 -11 29 11 29 11 0 20 -6 20 -14z m1254 -3 c9 -22 6 -23 -37 -10
-46 15 -47 21 -3 24 23 1 36 -4 40 -14z m1866 -13 c0 -20 -5 -30 -15 -30 -18
0 -30 24 -21 45 10 28 36 17 36 -15z m154 9 c-12 -13 -20 -16 -22 -9 -3 7 2
16 9 21 25 16 32 9 13 -12z m146 1 c0 -15 -7 -20 -27 -20 -25 0 -26 0 -8 20
10 11 22 20 27 20 4 0 8 -9 8 -20z m-1050 -11 c0 -14 -5 -19 -17 -17 -26 5
-29 38 -4 38 15 0 21 -6 21 -21z m-3427 -9 c13 -16 29 -20 76 -20 33 0 63 -4
66 -10 3 -5 35 -10 69 -10 48 0 69 -5 89 -20 14 -11 34 -20 45 -20 11 0 25 -7
33 -16 10 -13 10 -17 -2 -25 -22 -14 -93 -11 -115 6 -10 8 -35 15 -55 15 -26
0 -41 6 -53 23 -15 21 -16 21 -30 4 -12 -16 -17 -16 -35 -6 -11 7 -23 11 -26
7 -10 -10 7 -58 20 -58 16 0 45 -54 45 -83 0 -17 5 -18 36 -12 27 5 39 2 48
-10 8 -12 32 -17 96 -19 77 -3 134 -16 213 -49 15 -7 27 -15 27 -19 0 -15 -54
-21 -87 -9 -19 7 -59 14 -89 16 -39 2 -60 9 -70 22 -12 16 -15 16 -24 3 -27
-41 -8 -53 85 -51 54 1 75 -3 85 -14 7 -8 26 -15 43 -15 39 0 122 -41 105 -52
-21 -13 -97 -9 -129 7 -16 9 -50 17 -76 19 -28 2 -51 10 -58 19 -8 12 -15 13
-22 6 -8 -8 -17 -7 -33 1 -19 10 -22 9 -27 -9 -5 -21 -33 -30 -33 -11 0 6 -7
10 -15 10 -8 0 -15 -4 -15 -10 0 -5 -5 -10 -11 -10 -7 0 -9 10 -5 26 8 31 -29
88 -40 60 -4 -11 -18 -16 -48 -16 -36 1 -39 2 -23 14 22 17 22 24 -5 47 l-23
18 22 1 c12 0 25 -4 28 -10 10 -15 35 -12 35 5 0 8 -3 15 -7 15 -9 0 -43 57
-43 71 0 6 -27 45 -61 89 -57 73 -66 100 -36 100 7 0 20 -9 30 -20z m2572 10
c18 -8 17 -9 -7 -9 -16 -1 -28 4 -28 9 0 12 8 12 35 0z m4367 -50 c2 -28 8
-36 26 -38 13 -2 26 -10 29 -18 3 -8 13 -14 24 -14 28 0 69 -22 69 -37 0 -7
-11 -13 -25 -13 -16 0 -25 -6 -25 -15 0 -17 21 -19 66 -6 30 8 31 8 20 -15
-17 -36 -86 -37 -123 -2 -29 27 -29 38 0 46 17 5 12 8 -23 12 -39 5 -48 2 -67
-20 l-22 -25 -1 41 c0 23 7 58 16 79 8 21 13 43 10 50 -2 7 -2 16 2 19 10 11
20 -8 24 -44z m-2962 20 c0 -15 -7 -20 -26 -20 -16 0 -24 -5 -21 -12 2 -8 22
-13 50 -13 64 -1 75 -15 36 -45 -26 -18 -36 -21 -50 -11 -23 14 -59 15 -59 1
0 -5 -9 -10 -20 -10 -11 0 -20 4 -20 9 0 12 21 50 48 89 26 36 62 43 62 12z
m550 5 c0 -16 -27 -32 -37 -21 -7 7 16 36 28 36 5 0 9 -7 9 -15z m410 5 c0
-13 -28 -25 -38 -16 -3 4 0 11 8 16 20 13 30 12 30 0z m-5019 -10 c23 -13 25
-30 4 -30 -8 0 -24 -6 -35 -12 -26 -16 -41 -1 -29 30 9 24 29 28 60 12z m3566
-6 c4 -10 13 -13 32 -9 21 4 29 0 41 -22 15 -27 14 -29 -23 -66 l-37 -37 -25
26 c-27 29 -32 53 -13 72 21 21 -5 13 -29 -9 -20 -20 -23 -20 -29 -5 -4 11 2
25 17 40 28 28 57 32 66 10z m1378 -43 c-12 -11 -65 -3 -65 11 0 5 5 19 11 30
11 20 11 20 37 -6 17 -16 23 -29 17 -35z m-3625 35 c0 -8 -4 -18 -10 -21 -5
-3 -10 3 -10 14 0 12 5 21 10 21 6 0 10 -6 10 -14z m3182 -13 c26 -23 106 -34
123 -16 12 11 16 10 25 -7 10 -19 8 -20 -64 -20 -66 0 -92 6 -135 34 -11 7
-11 10 0 17 20 13 30 11 51 -8z m264 -12 c-4 -5 -13 -8 -22 -4 -11 4 -12 8 -3
20 14 16 36 2 25 -16z m-1758 1 c3 -9 -2 -13 -14 -10 -9 1 -19 9 -22 16 -3 9
2 13 14 10 9 -1 19 -9 22 -16z m442 3 c0 -8 -4 -15 -9 -15 -13 0 -22 16 -14
24 11 11 23 6 23 -9z m360 0 c0 -8 -7 -15 -15 -15 -8 0 -15 7 -15 15 0 8 7 15
15 15 8 0 15 -7 15 -15z m92 -43 c-12 -7 -27 -10 -33 -6 -13 8 -52 -33 -44
-46 10 -16 45 -12 45 5 0 8 3 15 8 15 9 0 56 -50 51 -53 -2 -2 -21 -8 -41 -15
-32 -11 -42 -11 -68 3 -17 9 -36 27 -42 40 -6 14 -15 25 -20 25 -4 0 -8 7 -8
16 0 12 6 15 25 10 18 -5 27 -1 34 13 7 12 18 17 30 14 13 -3 24 2 32 14 11
19 12 19 33 -1 l21 -21 -23 -13z m3398 37 c18 -33 7 -42 -24 -18 -21 17 -25
24 -14 30 20 13 26 11 38 -12z m-5744 -9 c63 0 80 -16 27 -25 -21 -3 -48 -8
-61 -11 -17 -3 -25 2 -32 21 -13 35 -13 42 2 27 7 -7 36 -12 64 -12z m2767
-20 c36 0 57 -10 57 -27 0 -11 -7 -14 -22 -10 -12 3 -29 2 -38 -3 -22 -12 -65
34 -55 58 6 16 7 16 19 0 7 -10 25 -18 39 -18z m1583 2 c-2 -10 -7 -34 -10
-54 -6 -31 -4 -37 14 -43 24 -8 26 -30 4 -39 -13 -5 -14 -9 -4 -21 9 -11 16
-12 31 -2 14 9 21 9 31 -1 6 -6 27 -12 44 -12 18 0 36 -5 39 -11 10 -16 -1
-22 -22 -11 -24 12 -43 5 -43 -17 0 -22 24 -43 68 -62 17 -8 30 -18 29 -24 -8
-23 -99 8 -132 45 -18 20 -19 22 -2 31 24 14 11 30 -17 23 -17 -4 -30 1 -47
19 -13 14 -33 27 -44 29 -24 5 -22 31 6 70 10 15 19 34 19 42 0 24 22 66 32
60 5 -3 7 -13 4 -22z m-6109 12 c28 -5 29 -8 19 -30 -14 -30 -19 -30 -50 0
-40 36 -33 43 31 30z m1468 -4 c3 -5 -3 -10 -14 -10 -12 0 -21 5 -21 10 0 6 6
10 14 10 8 0 18 -4 21 -10z m-545 -15 c0 -8 -4 -15 -10 -15 -5 0 -10 7 -10 15
0 8 5 15 10 15 6 0 10 -7 10 -15z m2190 -10 c0 -8 -4 -15 -10 -15 -5 0 -10 7
-10 15 0 8 5 15 10 15 6 0 10 -7 10 -15z m-905 -5 c4 -6 -6 -10 -22 -10 -22 0
-25 2 -13 10 19 12 27 12 35 0z m2463 -12 c3 -13 -3 -18 -22 -18 -27 0 -41 14
-31 31 10 16 49 6 53 -13z m267 -18 c0 -7 -6 -15 -12 -17 -8 -3 -13 4 -13 17
0 13 5 20 13 18 6 -3 12 -11 12 -18z m-4401 -8 c5 -3 29 -7 54 -9 69 -6 187
-61 169 -79 -3 -3 -22 -1 -43 5 -22 6 -68 11 -104 12 -38 1 -75 8 -90 17 -14
9 -37 15 -51 14 -15 -1 -32 5 -39 13 -12 15 -9 18 50 37 14 5 34 1 54 -10z
m2396 3 c0 -8 -7 -15 -15 -15 -8 0 -15 7 -15 15 0 8 7 15 15 15 8 0 15 -7 15
-15z m1340 -26 c0 -13 -33 -19 -65 -13 -31 5 -32 7 -17 23 14 13 23 14 50 6
17 -5 32 -13 32 -16z m-4020 -4 c0 -8 -4 -15 -10 -15 -5 0 -10 7 -10 15 0 8 5
15 10 15 6 0 10 -7 10 -15z m2355 -5 c0 -17 -34 -24 -54 -11 -7 5 -10 14 -6
20 10 17 60 9 60 -9z m85 7 c0 -8 11 -24 25 -37 13 -12 22 -27 19 -31 -10 -16
-24 -9 -34 16 -9 23 -14 25 -47 20 -29 -4 -33 -3 -17 4 12 5 24 16 27 25 8 19
27 21 27 3z m490 2 c0 -4 -17 -11 -37 -14 -21 -3 -46 -11 -56 -16 -13 -7 -23
-7 -32 1 -8 7 -23 9 -34 5 -21 -6 -61 9 -61 24 0 5 50 8 110 9 61 0 110 -4
110 -9z m1198 -7 c2 -7 -5 -12 -16 -12 -12 0 -22 -9 -25 -21 -7 -27 -41 -21
-45 8 -3 18 1 20 19 16 14 -4 25 0 31 11 10 18 29 17 36 -2z m145 3 c1 -5 -6
-11 -15 -13 -11 -2 -18 3 -18 13 0 17 30 18 33 0z m807 0 c0 -8 -4 -15 -10
-15 -5 0 -10 7 -10 15 0 8 5 15 10 15 6 0 10 -7 10 -15z m1019 -1 c2 -2 2 -7
-2 -10 -8 -9 -47 6 -47 17 0 9 37 3 49 -7z m-6889 -23 c-12 -23 -27 -26 -50
-11 -12 7 -11 10 5 15 11 4 27 10 35 15 21 11 24 5 10 -19z m5568 17 c-3 -7
-11 -13 -18 -13 -7 0 -15 6 -17 13 -3 7 4 12 17 12 13 0 20 -5 18 -12z m442
-18 c0 -22 -7 -25 -29 -11 -16 10 -6 31 15 31 8 0 14 -9 14 -20z m-1985 -5 c0
-5 -10 -11 -22 -13 -16 -2 -23 2 -23 13 0 11 7 15 23 13 12 -2 22 -7 22 -13z
m3999 9 c25 -9 19 -24 -9 -24 -24 0 -32 10 -18 23 8 8 8 8 27 1z m-6611 -11
c-17 -6 -16 -40 1 -50 8 -4 24 -26 35 -48 12 -22 33 -57 46 -77 15 -22 21 -40
15 -43 -6 -3 -10 -1 -10 5 0 6 -8 14 -17 17 -19 7 -63 50 -63 61 0 4 -18 27
-40 52 -22 25 -40 55 -40 68 0 19 5 22 43 21 23 0 36 -3 30 -6z m2407 -39 c0
-10 -19 -12 -83 -7 -67 5 -88 3 -108 -10 -23 -15 -119 -20 -119 -6 0 4 28 10
62 13 35 4 65 12 69 17 3 6 32 12 65 15 32 2 63 9 68 14 11 11 46 -16 46 -36z
m649 27 c32 -24 25 -55 -14 -59 -48 -4 -58 9 -39 46 18 37 21 38 53 13z m302
-7 c16 -20 2 -30 -54 -40 -46 -7 -50 -4 -38 30 9 21 17 26 45 26 18 0 39 -7
47 -16z m619 1 c0 -9 -9 -15 -25 -15 -29 0 -34 16 -7 23 30 8 32 7 32 -8z
m720 -10 c0 -8 -5 -15 -11 -15 -11 0 -48 -40 -49 -52 0 -5 7 -8 15 -8 8 0 15
-8 15 -19 0 -17 -6 -18 -64 -14 l-65 6 -3 -39 c-3 -32 -7 -39 -32 -45 -16 -5
-37 -4 -48 2 -14 8 -20 6 -25 -8 -9 -26 -23 -33 -65 -33 -27 0 -38 4 -38 15 0
22 -57 19 -87 -5 -14 -11 -32 -20 -39 -20 -8 0 -14 9 -14 20 0 14 7 20 22 20
12 0 30 7 39 16 10 9 31 16 46 16 29 -1 54 7 115 39 20 10 55 19 77 19 21 0
41 5 43 12 2 6 22 16 44 23 28 8 40 17 42 33 2 16 10 22 28 22 15 0 24 6 24
15 0 8 7 15 15 15 8 0 15 -7 15 -15z m-3066 -36 c-5 -9 -53 1 -60 12 -12 20 8
27 35 11 16 -9 28 -19 25 -23z m866 20 c0 -12 8 -23 20 -26 33 -9 24 -33 -12
-33 -46 0 -63 13 -50 36 5 11 7 25 5 32 -3 7 4 12 16 12 15 0 21 -6 21 -21z
m1860 -4 c0 -8 -7 -15 -15 -15 -16 0 -20 12 -8 23 11 12 23 8 23 -8z m420 0
c0 -8 -9 -15 -20 -15 -11 0 -20 7 -20 15 0 8 9 15 20 15 11 0 20 -7 20 -15z
m-6080 -4 c0 -14 -18 -23 -30 -16 -6 4 -8 11 -5 16 8 12 35 12 35 0z m3090
-13 c0 -42 -49 -75 -67 -45 -4 8 -21 13 -37 13 -16 -1 -31 5 -34 13 -3 10 2
12 24 8 19 -3 36 1 53 14 33 26 61 25 61 -3z m2530 12 c0 -15 -27 -23 -47 -16
-15 6 -15 8 -3 16 20 13 50 12 50 0z m-3325 -10 c-3 -5 -12 -10 -20 -10 -8 0
-17 5 -20 10 -4 6 5 10 20 10 15 0 24 -4 20 -10z m3243 3 c-10 -2 -18 -11 -18
-18 0 -18 -15 -26 -34 -19 -26 10 -18 32 12 37 38 6 61 6 40 0z m-2225 -14
c20 1 37 -3 37 -9 0 -5 -18 -11 -40 -11 -22 -1 -46 -2 -52 -3 -7 -1 -14 8 -16
18 -3 15 0 17 14 11 11 -4 36 -7 57 -6z m2097 -7 c0 -9 -43 -52 -52 -52 -4 0
-8 7 -8 15 0 8 4 15 9 15 5 0 11 9 14 20 3 13 10 18 21 14 9 -3 16 -9 16 -12z
m-3230 -1 c0 -14 -37 -23 -60 -16 -11 4 -18 11 -15 16 8 12 75 12 75 0z m1770
-1 c0 -5 -12 -10 -26 -10 -14 0 -23 4 -19 10 3 6 15 10 26 10 10 0 19 -4 19
-10z m-300 -15 c0 -8 -5 -15 -10 -15 -6 0 -10 -6 -9 -12 3 -27 -2 -38 -16 -38
-11 0 -15 11 -15 40 0 36 3 40 25 40 16 0 25 -6 25 -15z m2788 -3 c3 -9 -2
-13 -14 -10 -9 1 -19 9 -22 16 -3 9 2 13 14 10 9 -1 19 -9 22 -16z m-3808 -32
c0 -11 -4 -20 -10 -20 -5 0 -10 9 -10 20 0 11 5 20 10 20 6 0 10 -9 10 -20z
m1544 10 c29 -11 34 -35 11 -44 -18 -6 -59 30 -50 44 8 12 8 12 39 0z m2610
-42 c8 -13 7 -21 -2 -30 -14 -14 -26 -4 -37 30 -6 19 -4 23 10 20 10 -1 23
-11 29 -20z m-6834 -13 c0 -8 -7 -15 -15 -15 -8 0 -15 7 -15 15 0 8 7 15 15
15 8 0 15 -7 15 -15z m2040 6 c0 -11 -25 -21 -51 -21 -19 0 -25 11 -12 23 10
10 63 8 63 -2z m419 0 c11 -7 9 -10 -8 -16 -25 -8 -36 -2 -26 14 8 13 15 14
34 2z m1492 -14 c-13 -13 -26 -3 -16 12 3 6 11 8 17 5 6 -4 6 -10 -1 -17z
m2512 -30 c-3 -5 -13 -1 -23 8 -15 14 -18 14 -30 0 -7 -8 -16 -15 -21 -15 -16
0 -9 22 13 40 22 17 23 17 44 -3 13 -12 20 -25 17 -30z m-3963 34 c0 -5 12
-11 27 -13 31 -3 44 -28 16 -28 -11 0 -30 11 -43 25 -13 14 -18 25 -12 25 7 0
12 -4 12 -9z m-1444 -28 c17 -23 19 -86 2 -81 -7 3 -14 15 -16 27 -2 12 -10
25 -18 28 -20 7 -18 43 2 43 9 0 23 -8 30 -17z m4139 -5 c-16 -6 -39 -17 -50
-24 -34 -24 -42 -15 -10 11 18 14 42 24 60 24 l30 -1 -30 -10z m1686 -1 c-1
-12 -15 -9 -19 4 -3 6 1 10 8 8 6 -3 11 -8 11 -12z m-5748 -22 c-4 -15 -36
-12 -41 3 -3 9 3 13 19 10 13 -1 23 -7 22 -13z m103 0 c16 -8 49 -15 74 -15
26 -1 66 -11 95 -24 49 -24 50 -24 22 -31 -15 -4 -40 -5 -55 -2 -15 3 -56 10
-92 16 -110 20 -148 40 -123 64 11 12 49 8 79 -8z m2799 -3 c0 -18 -20 -15
-23 4 -3 10 1 15 10 12 7 -3 13 -10 13 -16z m2469 -4 c9 -12 13 -24 11 -27 -6
-5 -45 29 -45 41 0 15 19 8 34 -14z m446 -13 c7 -8 10 -22 6 -30 -4 -10 1 -15
14 -15 11 0 20 -4 20 -9 0 -17 -21 -24 -43 -13 -12 6 -30 13 -41 16 -17 6 -18
8 -2 24 9 10 16 24 16 30 0 17 15 15 30 -3z m-1852 -7 c-7 -19 -38 -22 -38 -4
0 10 9 16 21 16 12 0 19 -5 17 -12z m1378 -19 c72 -38 70 -37 55 -52 -10 -10
-16 -7 -28 11 -11 16 -25 22 -52 22 -46 0 -84 24 -61 40 21 14 20 14 86 -21z
m382 19 c-7 -19 -38 -22 -38 -4 0 10 9 16 21 16 12 0 19 -5 17 -12z m-3792
-35 c-1 -39 -19 -52 -53 -39 -13 6 -10 13 17 41 19 19 35 35 36 35 0 0 1 -17
0 -37z m2409 13 c-23 -19 -37 -22 -68 -18 -28 3 -45 0 -65 -15 -33 -23 -125
-46 -170 -41 l-33 3 21 23 c17 18 32 22 76 22 39 0 56 4 60 15 5 11 16 13 43
10 20 -3 53 1 76 9 22 8 51 15 65 16 l25 0 -30 -24z m-3927 -32 c18 -20 32
-38 32 -40 0 -6 42 -67 51 -74 11 -10 29 -49 29 -65 0 -14 -3 -14 -20 -2 -22
16 -90 101 -90 114 0 5 -13 24 -30 43 -16 19 -29 41 -30 48 0 23 26 12 58 -24z
m5770 24 c18 -18 14 -28 -10 -28 -30 0 -52 15 -44 29 9 15 39 14 54 -1z
m-5548 -33 c0 -15 -26 -20 -54 -9 -28 11 -17 24 19 24 24 0 35 -5 35 -15z
m5295 -26 c21 -32 24 -43 14 -55 -13 -16 -59 -19 -59 -4 0 6 7 10 15 10 8 0
15 6 15 14 0 16 -26 46 -41 46 -5 0 -9 7 -9 15 0 31 40 15 65 -26z m185 26 c0
-8 5 -15 10 -15 6 0 10 -7 10 -15 0 -8 -5 -15 -10 -15 -6 0 -13 7 -16 15 -4 8
-15 15 -25 15 -19 0 -25 11 -12 23 12 13 43 7 43 -8z m-440 -15 c16 -13 20
-20 10 -19 -16 0 -50 22 -50 33 0 11 14 6 40 -14z m580 -24 c0 -24 -1 -24 -30
-10 -16 9 -30 20 -30 25 0 5 14 9 30 9 25 0 30 -4 30 -24z m-2310 -26 c0 -23
-21 -26 -68 -9 -43 15 -31 29 24 29 37 0 44 -3 44 -20z m1830 -27 c29 -36 30
-38 10 -41 -34 -6 -53 6 -47 28 3 13 -1 21 -14 25 -25 8 -25 25 0 25 11 0 34
-17 51 -37z m388 11 c28 -14 30 -17 19 -37 -7 -12 -13 -23 -13 -25 -4 -10 -64
36 -64 49 0 32 14 35 58 13z m-5952 -4 c6 -6 44 -14 85 -19 41 -5 84 -13 95
-19 10 -6 28 -13 39 -17 16 -5 17 -8 5 -15 -20 -13 -73 -13 -86 0 -6 6 -39 14
-75 19 -51 7 -114 24 -138 38 -1 1 0 6 4 12 8 14 58 14 71 1z m474 -15 c0 -27
-9 -32 -28 -13 -18 18 -14 38 8 38 15 0 20 -7 20 -25z m769 9 c1 -1 -13 -6
-32 -9 -40 -8 -68 2 -46 16 11 7 67 2 78 -7z m834 0 c-1 -5 -9 -11 -18 -12
-24 -5 -86 8 -81 16 6 11 101 6 99 -4z m3778 6 c24 -13 24 -25 0 -58 -16 -23
-26 -27 -67 -27 -42 0 -49 3 -52 21 -4 25 23 55 42 48 7 -3 19 2 26 11 15 18
24 19 51 5z m290 -20 c11 -6 18 -17 15 -23 -3 -7 -9 -20 -12 -29 -5 -13 -14
-15 -42 -11 -50 8 -62 21 -37 40 12 9 15 17 9 20 -6 2 -20 10 -30 18 -17 12
-13 12 29 4 26 -4 56 -13 68 -19z m-5231 -11 c-6 -10 -20 -19 -30 -19 -11 0
-20 -4 -20 -10 0 -5 -6 -10 -13 -10 -18 0 -67 24 -67 33 0 11 28 9 48 -4 15
-9 23 -7 46 15 31 28 52 26 36 -5z m943 -4 c1 -5 -6 -11 -15 -13 -11 -2 -18 3
-18 13 0 17 30 18 33 0z m3627 -28 c24 -4 24 -4 -3 -6 -35 -1 -84 28 -65 40 8
5 18 2 28 -10 8 -11 26 -21 40 -24z m-4143 -3 c-9 -9 -28 6 -21 18 4 6 10 6
17 -1 6 -6 8 -13 4 -17z m362 0 c6 -6 -1 -11 -26 -18 -19 -6 -23 -4 -23 14 0
18 4 20 23 14 12 -3 24 -8 26 -10z m1319 5 c-2 -6 -7 -10 -11 -10 -4 1 -14 1
-23 1 -8 0 -12 5 -9 10 8 13 48 13 43 -1z m2637 -8 c10 -17 -11 -21 -31 -6
-18 14 -18 14 3 15 12 0 24 -4 28 -9z m625 -47 c20 -19 41 -34 47 -34 7 0 18
-8 25 -18 7 -11 23 -24 36 -31 13 -7 21 -18 19 -24 -5 -17 -77 -16 -77 1 0 7
-5 22 -10 33 -10 18 -13 18 -38 5 -42 -22 -92 -39 -98 -33 -3 3 2 19 10 35 15
29 15 31 -4 37 -23 7 -25 26 -7 56 16 27 52 18 97 -27z m-5020 -38 c-8 -22
-15 -27 -37 -24 -18 2 -29 10 -32 23 -2 11 -8 23 -15 27 -6 5 3 5 21 2 17 -3
39 -1 50 4 22 13 27 3 13 -32z m140 29 c0 -8 7 -15 16 -15 10 0 14 -7 12 -22
-4 -32 -28 -35 -28 -4 0 19 -6 27 -26 32 -19 5 -22 9 -12 15 20 13 38 11 38
-6z m1260 5 c0 -5 -12 -10 -27 -10 -22 0 -25 2 -13 10 20 13 40 13 40 0z
m3110 -5 c0 -8 -4 -15 -10 -15 -5 0 -10 7 -10 15 0 8 5 15 10 15 6 0 10 -7 10
-15z m316 -33 c-9 -9 -37 8 -31 18 5 8 11 7 21 -1 8 -6 12 -14 10 -17z m-4936
3 c0 -9 -9 -15 -25 -15 -24 0 -32 10 -18 23 12 13 43 7 43 -8z m4770 -2 c0 -5
-7 -16 -14 -26 -18 -24 -111 -21 -111 3 0 10 10 15 32 15 17 0 35 3 39 8 4 4
18 7 31 7 13 0 23 -3 23 -7z m-3431 -17 c10 -12 8 -17 -9 -26 -29 -15 -49 2
-30 25 16 19 24 19 39 1z m3531 -26 c23 -18 24 -20 4 -20 -24 0 -74 22 -74 33
0 14 46 6 70 -13z m-3795 -15 c0 -5 -10 -11 -22 -13 -16 -2 -23 2 -23 13 0 11
7 15 23 13 12 -2 22 -7 22 -13z m3925 -40 c6 -8 10 -22 7 -32 -4 -16 -6 -15
-12 5 -4 12 -15 22 -26 22 -11 0 -19 5 -19 10 0 15 36 12 50 -5z m-4606 -31
c4 -11 0 -15 -16 -12 -12 2 -23 9 -26 16 -6 18 35 15 42 -4z m134 4 c-3 -7
-11 -13 -18 -13 -7 0 -15 6 -17 13 -3 7 4 12 17 12 13 0 20 -5 18 -12z m-388
-23 c0 -8 -7 -15 -15 -15 -8 0 -15 7 -15 15 0 8 7 15 15 15 8 0 15 -7 15 -15z"/>
<path d="M2855 5149 c-10 -15 3 -25 16 -12 7 7 7 13 1 17 -6 3 -14 1 -17 -5z"/>
<path d="M2425 3221 l-30 -7 39 -17 c22 -10 41 -15 43 -13 7 6 -7 46 -15 45
-4 -1 -20 -5 -37 -8z"/>
<path d="M2416 3083 c12 -50 18 -56 39 -33 17 19 17 21 0 40 -27 30 -47 26
-39 -7z"/>
<path d="M2000 3042 c0 -14 11 -21 26 -15 8 3 11 9 8 14 -7 11 -34 12 -34 1z"/>
<path d="M2077 2904 c-3 -3 -23 -7 -44 -7 -35 -2 -38 -4 -38 -32 0 -25 -3 -30
-22 -27 -13 2 -23 -2 -23 -8 0 -8 14 -9 46 -4 41 6 46 4 51 -15 9 -33 45 -24
49 12 1 16 8 35 15 43 17 21 -15 57 -34 38z"/>
<path d="M2200 2829 c-13 -24 -5 -39 21 -39 13 0 19 7 19 24 0 31 -26 41 -40
15z"/>
<path d="M2210 2715 c0 -16 6 -25 15 -25 9 0 15 9 15 25 0 16 -6 25 -15 25 -9
0 -15 -9 -15 -25z"/>
<path d="M2096 2663 c-11 -11 -6 -23 9 -23 8 0 15 4 15 9 0 13 -16 22 -24 14z"/>
<path d="M2080 2584 c0 -11 34 -33 49 -34 11 0 10 5 -4 20 -17 19 -45 27 -45
14z"/>
<path d="M5451 2952 c-6 -11 -11 -34 -11 -49 0 -16 -7 -38 -15 -49 -8 -10 -15
-31 -15 -45 0 -15 -7 -43 -15 -62 -16 -38 -19 -84 -9 -111 10 -25 23 -19 32
17 6 22 15 33 30 35 29 4 33 23 34 152 1 114 -10 152 -31 112z"/>
<path d="M4946 2788 c-4 -46 -12 -104 -18 -129 -12 -51 2 -109 27 -109 20 0
23 20 19 96 -3 38 -6 102 -7 141 -2 40 -6 75 -9 78 -3 3 -8 -32 -12 -77z"/>
<path d="M4920 2495 c0 -10 7 -15 18 -13 21 4 19 22 -2 26 -10 2 -16 -3 -16
-13z"/>
<path d="M4074 2859 c-3 -6 -1 -16 5 -22 8 -8 11 -5 11 11 0 24 -5 28 -16 11z"/>
<path d="M4525 2850 c-12 -20 -18 -217 -7 -224 9 -5 8 -12 0 -26 -17 -27 4
-50 30 -34 14 10 17 27 16 110 -1 151 -5 184 -20 184 -7 0 -16 -4 -19 -10z"/>
<path d="M4526 2543 c-3 -3 -6 -19 -6 -34 0 -23 -5 -29 -32 -35 -29 -6 -30 -8
-13 -15 11 -4 37 -8 58 -8 37 -1 37 -1 37 39 0 28 -5 42 -19 49 -10 6 -21 7
-25 4z"/>
<path d="M4287 2453 c-13 -12 -7 -33 8 -33 8 0 15 9 15 20 0 20 -11 26 -23 13z"/>
<path d="M800 2816 c0 -8 5 -18 10 -21 6 -3 10 3 10 14 0 12 -4 21 -10 21 -5
0 -10 -6 -10 -14z"/>
<path d="M6853 1849 c-10 -4 -34 -9 -53 -10 -29 -1 -25 -3 20 -9 83 -12 178
-11 185 1 4 6 5 12 4 14 -9 7 -139 10 -156 4z"/>
<path d="M1140 1330 c0 -5 6 -13 14 -17 7 -4 15 -15 18 -23 5 -12 7 -12 13 3
4 10 2 24 -5 32 -14 17 -40 20 -40 5z"/>
<path d="M5980 1230 c0 -5 7 -10 15 -10 8 0 15 5 15 10 0 6 -7 10 -15 10 -8 0
-15 -4 -15 -10z"/>
<path d="M1197 4544 c-8 -8 1 -24 14 -24 5 0 9 7 9 15 0 15 -12 20 -23 9z"/>
<path d="M1220 4454 c-22 -26 -28 -40 -21 -47 8 -8 14 -8 23 1 9 9 15 5 25
-19 7 -17 13 -40 13 -50 0 -17 3 -16 36 6 41 28 99 33 107 11 3 -8 18 -16 34
-18 23 -2 28 -7 25 -27 -1 -14 -10 -33 -18 -42 -9 -10 -13 -23 -9 -29 9 -15
25 -2 25 21 0 27 14 24 43 -11 29 -34 47 -39 47 -11 0 10 7 21 15 25 8 3 15
12 15 21 0 8 7 15 15 15 8 0 15 -4 15 -10 0 -5 7 -10 15 -10 9 0 15 9 15 23 0
18 -11 29 -45 46 -24 12 -47 27 -51 32 -4 6 -10 6 -19 -1 -10 -8 -22 -2 -52
24 -33 31 -37 38 -26 55 9 14 9 22 2 27 -6 4 -14 1 -18 -5 -6 -9 -21 -9 -60 0
-38 8 -55 8 -65 -1 -10 -7 -16 -8 -21 0 -12 19 -33 10 -65 -26z"/>
<path d="M802 4211 c2 -7 7 -12 11 -12 12 1 9 15 -3 20 -7 2 -11 -2 -8 -8z"/>
<path d="M1250 3755 c0 -9 5 -15 11 -13 6 2 11 8 11 13 0 5 -5 11 -11 13 -6 2
-11 -4 -11 -13z"/>
<path d="M863 3693 c-4 -10 -11 -22 -17 -26 -7 -5 -4 -6 7 -3 10 3 25 6 33 6
8 0 14 9 14 20 0 25 -28 27 -37 3z"/>
<path d="M26 3420 c-19 -91 -26 -136 -26 -175 0 -41 3 -45 28 -50 15 -4 35
-10 44 -16 25 -13 38 -11 38 6 0 17 27 20 50 5 13 -8 12 -11 -5 -24 -14 -11
-16 -15 -6 -16 8 0 25 9 37 21 17 16 26 18 41 11 13 -8 24 -6 39 7 20 16 21
26 15 131 -1 17 -11 31 -32 43 -34 19 -85 23 -91 6 -2 -6 -15 -9 -28 -6 l-25
4 23 8 c12 4 22 11 22 15 0 12 -57 23 -71 14 -7 -4 -19 3 -30 17 l-17 24 -6
-25z m54 -109 c0 -24 -18 -37 -31 -24 -13 13 -1 43 17 43 8 0 14 -9 14 -19z"/>
<path d="M7895 3424 c-18 -18 -20 -44 -4 -44 7 0 17 7 23 16 11 14 20 12 80
-21 37 -20 74 -34 83 -31 21 8 8 22 -27 29 -35 7 -40 32 -8 40 37 10 12 19
-61 23 -53 2 -74 -1 -86 -12z"/>
<path d="M8025 3310 c-8 -12 20 -24 35 -15 5 3 10 10 10 16 0 12 -37 12 -45
-1z"/>
<path d="M470 3275 c-9 -11 -16 -12 -25 -5 -10 8 -26 3 -62 -20 -26 -17 -48
-36 -48 -43 0 -14 82 -22 132 -12 29 5 33 10 33 38 0 45 -13 63 -30 42z"/>
<path d="M837 3284 c-3 -4 -27 -8 -52 -10 -54 -3 -92 -25 -105 -59 -8 -20 -17
-24 -56 -27 -29 -2 -49 -8 -52 -17 -4 -11 6 -12 49 -6 30 4 59 11 64 15 10 7
85 14 139 12 36 -2 58 -29 43 -54 -15 -23 1 -38 17 -15 7 9 24 17 38 17 13 0
29 5 35 11 8 8 13 8 17 0 11 -17 69 -12 95 8 33 25 21 56 -32 79 -31 14 -46
16 -59 8 -13 -8 -23 -5 -42 13 -17 16 -31 21 -46 16 -11 -4 -27 -2 -34 4 -7 6
-16 8 -19 5z m164 -107 c-13 -13 -26 -3 -16 12 3 6 11 8 17 5 6 -4 6 -10 -1
-17z m-51 3 c0 -5 -13 -10 -30 -10 -16 0 -30 5 -30 10 0 6 14 10 30 10 17 0
30 -4 30 -10z"/>
<path d="M7587 3274 c-2 -5 -8 -24 -12 -41 -6 -29 -4 -33 14 -33 16 0 21 6 21
28 0 30 -15 59 -23 46z"/>
<path d="M521 3204 c-6 -15 -9 -29 -6 -32 3 -3 5 -1 5 5 0 6 9 13 21 16 12 3
19 11 17 18 -8 23 -24 20 -37 -7z"/>
<path d="M740 3155 c0 -10 7 -15 18 -13 21 4 19 22 -2 26 -10 2 -16 -3 -16
-13z"/>
<path d="M800 3139 c0 -24 23 -21 28 4 2 10 -3 17 -12 17 -10 0 -16 -9 -16
-21z"/>
<path d="M0 2790 c0 -18 4 -29 10 -25 6 3 10 15 10 25 0 10 -4 22 -10 25 -6 4
-10 -7 -10 -25z"/>
<path d="M3080 2260 c0 -5 11 -10 25 -10 14 0 25 5 25 10 0 6 -11 10 -25 10
-14 0 -25 -4 -25 -10z"/>
<path d="M2990 2231 c0 -13 30 -22 51 -16 31 10 21 25 -16 25 -19 0 -35 -4
-35 -9z"/>
<path d="M2885 2200 c-4 -6 7 -10 24 -10 17 0 31 5 31 10 0 6 -11 10 -24 10
-14 0 -28 -4 -31 -10z"/>
<path d="M2800 2170 c-11 -7 -6 -10 20 -10 26 0 31 3 20 10 -8 5 -17 10 -20
10 -3 0 -12 -5 -20 -10z"/>
<path d="M1186 1872 c-3 -6 -1 -14 5 -17 15 -10 25 3 12 16 -7 7 -13 7 -17 1z"/>
<path d="M75 804 c-49 -12 -75 -27 -75 -45 0 -13 7 -19 23 -19 35 0 67 -11 61
-21 -3 -5 -23 -9 -45 -9 l-39 0 0 -46 c0 -28 4 -43 10 -39 6 3 7 17 4 31 -6
23 -4 24 46 24 51 0 52 1 46 26 -6 21 -4 25 11 22 14 -3 17 -12 15 -36 -1 -18
3 -42 9 -53 10 -20 11 -20 24 -2 9 12 12 30 8 52 -5 32 -5 34 18 26 13 -4 38
-8 55 -9 23 -1 40 -11 64 -38 38 -43 46 -45 72 -21 17 15 20 15 42 -6 19 -18
29 -21 42 -13 13 7 27 5 51 -6 28 -13 38 -14 73 -2 24 8 40 20 40 29 1 28 43
48 115 55 75 8 104 21 64 30 -13 3 -72 7 -131 8 -94 3 -131 9 -117 22 2 2 44
6 93 10 49 3 90 7 92 9 2 1 -1 9 -5 16 -6 9 -14 10 -27 3 -17 -9 -98 -13 -242
-13 -48 -1 -52 -2 -47 -20 6 -18 1 -19 -74 -19 -78 0 -81 1 -69 20 14 22 6 35
-18 26 -9 -3 -14 -12 -10 -21 3 -8 1 -15 -4 -15 -6 0 -10 4 -10 10 0 17 -126
43 -165 34z m510 -114 c-3 -5 -19 -10 -36 -10 -16 0 -29 5 -29 10 0 6 16 10
36 10 21 0 33 -4 29 -10z"/>
<path d="M919 769 c-26 -16 3 -23 107 -25 75 -1 110 -6 122 -16 13 -11 50 -16
142 -17 69 -2 143 -6 165 -11 35 -7 37 -9 17 -15 -27 -9 -24 -29 6 -33 27 -4
103 70 92 88 -4 7 -15 10 -24 7 -8 -3 -18 -2 -21 2 -9 15 -115 24 -130 11 -10
-8 -27 -10 -47 -5 -18 4 -100 9 -183 11 -82 2 -169 5 -192 7 -22 3 -47 1 -54
-4z"/>
<path d="M3587 743 c-11 -18 11 -35 39 -31 40 4 38 32 -3 36 -17 2 -33 -1 -36
-5z"/>
<path d="M1598 715 c-6 -14 -19 -25 -29 -25 -24 0 -33 -18 -19 -35 19 -23 83
-19 98 5 17 28 42 26 42 -4 0 -23 2 -24 63 -19 87 7 97 6 138 -5 53 -14 70 0
39 33 -18 19 -31 24 -48 20 -13 -3 -35 1 -52 11 -22 14 -32 15 -43 6 -14 -12
-23 -10 -120 25 -51 18 -56 17 -69 -12z"/>
<path d="M950 690 c0 -5 7 -10 15 -10 8 0 15 5 15 10 0 6 -7 10 -15 10 -8 0
-15 -4 -15 -10z"/>
<path d="M814 665 c-4 -8 -16 -15 -28 -15 -11 0 -28 -5 -36 -10 -13 -9 -13
-11 0 -20 8 -5 21 -10 28 -10 18 0 15 -17 -5 -29 -12 -6 -26 -5 -43 3 -17 8
-62 10 -148 6 -108 -4 -125 -7 -138 -25 -13 -17 -17 -18 -27 -5 -14 18 -117
16 -129 -3 -5 -9 -16 -7 -39 7 -32 19 -32 19 -50 -5 -16 -20 -20 -22 -29 -9
-5 8 -10 20 -10 25 0 6 -6 1 -12 -10 -17 -31 -18 -31 -38 -5 -18 24 -19 24
-33 6 -8 -11 -19 -16 -26 -12 -6 4 -20 4 -31 1 -19 -6 -20 -15 -20 -228 1
-156 4 -217 11 -204 12 20 35 23 42 5 8 -26 -5 -48 -29 -48 -21 0 -24 -5 -24
-40 l0 -40 247 1 c142 0 255 5 266 11 12 6 23 6 30 0 18 -14 605 -16 622 -2
10 8 19 8 34 1 30 -16 274 -15 268 2 -2 7 -17 11 -33 9 -35 -3 -67 34 -42 49
20 13 26 11 38 -11 14 -26 26 -25 33 2 6 21 7 21 25 5 18 -17 20 -17 26 -1 5
12 14 15 37 10 25 -5 32 -2 36 14 5 20 25 24 53 12 15 -7 22 -72 9 -72 -4 0
-9 -7 -13 -15 -4 -12 4 -15 44 -15 40 0 50 4 55 20 8 26 35 26 35 0 0 -18 8
-19 164 -19 135 1 164 3 159 14 -11 31 10 37 33 10 15 -17 30 -25 45 -23 21 3
20 5 -14 28 -42 29 -47 40 -14 40 26 -1 67 -32 67 -52 0 -18 135 -24 155 -8 9
8 15 8 20 0 7 -12 65 -14 65 -2 0 5 -10 14 -22 21 -21 11 -21 11 7 6 17 -3 48
-11 70 -17 56 -16 833 -22 852 -7 9 8 13 8 13 0 0 -7 44 -11 140 -10 77 0 140
4 140 8 0 5 -7 25 -15 45 -15 36 -12 62 6 51 5 -4 9 -15 9 -27 0 -17 4 -19 25
-14 24 6 37 -8 14 -16 -19 -6 0 -48 22 -48 16 0 19 5 14 20 -4 14 -2 20 9 20
9 0 21 9 28 20 13 21 38 27 38 10 0 -6 -7 -13 -15 -16 -22 -9 -18 -29 9 -42
15 -7 199 -11 554 -11 l531 -1 3 22 c4 29 22 30 26 1 3 -20 9 -21 113 -22 60
-1 109 2 109 7 0 5 -11 18 -25 30 -21 18 -24 26 -15 42 16 29 39 13 52 -36
l12 -44 88 0 c77 0 88 2 88 18 0 9 12 28 26 42 l27 25 -8 -43 c-4 -28 -3 -42
4 -42 6 0 11 7 11 15 0 19 16 19 23 0 5 -12 65 -14 408 -15 373 0 402 1 415
17 12 17 13 17 19 1 6 -16 25 -18 191 -18 173 0 184 1 184 19 0 20 -47 35 -75
25 -8 -4 -17 1 -21 10 -3 9 -14 16 -24 16 -14 0 -18 -7 -17 -26 1 -15 -4 -29
-10 -31 -8 -3 -13 3 -13 14 0 20 -55 53 -89 53 -10 0 -35 7 -55 15 -20 9 -47
13 -60 9 -20 -5 -27 0 -39 23 l-15 28 -12 -30 c-7 -17 -16 -40 -21 -53 -5 -12
-16 -22 -24 -22 -13 0 -15 7 -10 33 5 23 2 37 -8 46 -11 8 -17 9 -22 1 -4 -6
-19 -9 -35 -5 -25 5 -28 3 -34 -27 l-7 -33 -28 32 c-15 18 -32 33 -38 33 -6 0
-13 6 -16 13 -7 21 -18 1 -25 -49 -9 -59 -30 -70 -34 -17 -3 35 -5 38 -30 35
-19 -2 -28 3 -33 18 -4 14 -12 19 -23 16 -9 -3 -24 -1 -32 4 -10 6 -24 2 -46
-15 l-32 -24 -15 22 c-12 19 -16 20 -31 8 -14 -11 -16 -11 -16 2 0 21 -6 24
-64 32 l-49 8 6 -32 c4 -17 3 -31 -1 -31 -12 0 -40 36 -44 56 -7 36 -33 26
-57 -22 -16 -31 -26 -42 -31 -33 -9 14 -2 40 13 50 17 12 -2 39 -27 39 -14 0
-28 5 -31 11 -5 7 -14 4 -27 -7 -16 -16 -21 -16 -28 -4 -6 8 -10 18 -10 22 0
13 -65 -18 -87 -42 -29 -32 -28 -58 2 -95 19 -23 27 -27 37 -17 9 9 7 18 -10
42 -12 16 -22 38 -22 49 0 19 2 19 33 6 40 -16 44 -38 18 -98 -37 -86 -81 -52
-149 116 -7 15 -18 27 -26 27 -7 0 -19 7 -26 15 -9 11 -17 12 -31 4 -26 -14
-24 -28 7 -39 30 -12 23 -30 -12 -30 -28 0 -97 47 -88 61 3 5 1 9 -3 9 -5 0
-13 -10 -18 -22 -13 -29 -35 -35 -35 -9 0 24 3 23 -68 26 -38 1 -55 -2 -59
-12 -8 -20 -21 -15 -25 10 -2 17 -11 23 -35 25 -29 3 -33 7 -33 33 0 18 -4 28
-10 24 -5 -3 -10 -15 -10 -25 0 -21 -33 -36 -52 -24 -7 4 -25 7 -41 6 -22 -2
-27 1 -25 15 2 13 -4 18 -22 18 -14 0 -40 8 -58 17 -32 17 -33 16 -27 -3 6
-19 5 -19 -30 -4 -21 8 -46 15 -56 15 -11 0 -19 4 -19 8 0 5 -11 15 -25 22
-20 11 -27 11 -40 0 -20 -17 -94 -23 -111 -9 -12 10 -104 19 -204 21 -78 1
-161 -11 -184 -26 -14 -8 -26 -11 -28 -6 -2 6 -29 16 -61 22 -51 11 -62 10
-88 -4 -27 -16 -29 -16 -41 0 -7 9 -29 18 -49 19 -33 3 -38 0 -44 -25 -6 -26
-7 -26 -20 -8 -13 17 -23 18 -85 13 -58 -5 -71 -3 -79 11 -7 13 -15 4 -39 -48
-25 -53 -31 -62 -38 -46 -5 14 -2 23 14 34 24 16 30 60 11 79 -14 14 -64 6
-97 -15 -18 -12 -25 -12 -38 -1 -9 7 -35 12 -61 10 -32 -1 -51 3 -65 16 -19
17 -20 17 -38 -7 l-19 -25 -10 27 c-10 27 -43 52 -55 41 -3 -3 -1 -12 6 -20
15 -18 9 -21 -34 -15 -24 2 -38 10 -38 18 0 8 -7 14 -15 14 -8 0 -15 -9 -15
-20 0 -27 -13 -25 -46 5 -14 13 -31 22 -36 19 -5 -3 -2 -12 8 -18 12 -9 15
-20 10 -40 -7 -30 -26 -26 -26 5 0 11 -7 22 -15 25 -37 15 9 64 60 64 15 0 35
5 46 11 15 8 26 7 43 -4 23 -16 116 -12 116 4 0 24 -112 48 -180 39 -30 -4
-59 -4 -64 1 -20 18 -35 8 -42 -27 -5 -29 -9 -33 -16 -20 -5 9 -16 16 -23 16
-22 0 -18 -37 5 -60 11 -11 20 -27 20 -35 0 -8 -9 -15 -20 -15 -15 0 -20 7
-20 25 0 18 -7 26 -25 31 -15 4 -25 13 -25 23 0 29 -12 32 -47 10 -41 -26 -47
-22 -28 15 21 39 19 53 -7 60 -45 12 -283 18 -327 8 -35 -9 -48 -8 -67 5 -16
10 -33 13 -56 7 -54 -12 -92 -11 -115 4 -18 11 -28 11 -57 1 -28 -10 -39 -10
-48 -1 -15 15 -54 16 -63 2 -3 -5 -19 -10 -34 -10 -15 0 -32 -5 -38 -11 -7 -7
-15 -2 -27 16 -17 26 -26 27 -68 10 -12 -5 -17 -1 -20 15 -4 27 -22 27 -26 0
-4 -26 -19 -26 -27 1 -5 14 -13 19 -26 16 -11 -3 -33 0 -50 6 -26 10 -32 9
-43 -6 -17 -22 -25 -22 -42 1 -13 16 -15 16 -24 0 -8 -13 -23 -17 -61 -15 -35
1 -53 -2 -59 -13 -8 -12 -12 -12 -18 -2 -8 12 -46 17 -102 13 -41 -3 -131 8
-167 20 -39 13 -45 39 -8 39 16 0 25 6 25 15 0 8 -9 15 -20 15 -11 0 -23 -7
-26 -15z m547 -139 c11 -40 4 -44 -26 -16 -31 29 -33 53 -3 48 14 -2 24 -13
29 -32z m-91 9 c0 -8 -9 -19 -19 -25 -27 -14 -40 9 -16 27 24 17 35 17 35 -2z
m485 -25 c3 -11 10 -20 15 -20 5 0 14 9 20 20 16 29 25 25 42 -19 17 -42 13
-58 -9 -40 -10 9 -18 8 -31 -3 -47 -41 -92 -22 -92 38 0 30 6 37 42 43 4 0 10
-8 13 -19z m507 -16 c-9 -16 -10 -16 -21 4 -8 15 -8 21 2 25 19 7 30 -9 19
-29z m-742 -9 c11 -30 30 -33 37 -5 7 26 14 25 35 -4 18 -24 14 -70 -5 -63 -7
2 -14 14 -18 28 -7 23 -7 23 -8 2 -1 -16 -7 -23 -21 -23 -11 0 -20 6 -20 13 0
8 -11 19 -25 25 -29 14 -32 27 -7 41 23 14 21 14 32 -14z m148 -18 c2 -15 -1
-27 -7 -27 -14 0 -33 38 -26 51 11 17 30 4 33 -24z m367 -8 c5 -19 2 -28 -9
-32 -18 -7 -32 32 -22 60 8 20 22 8 31 -28z m-61 15 c8 -22 9 -21 -23 -37 -25
-13 -31 -13 -35 -1 -3 8 -13 14 -23 14 -13 0 -14 3 -5 12 10 10 15 10 23 -2 8
-13 12 -12 26 8 18 26 29 28 37 6z m181 0 c31 -20 23 -34 -19 -34 -40 0 -48 7
-35 31 12 23 23 24 54 3z m-760 -12 c0 -18 -20 -15 -23 4 -3 10 1 15 10 12 7
-3 13 -10 13 -16z m845 -24 c0 -16 -3 -19 -11 -11 -6 6 -8 16 -5 22 11 17 16
13 16 -11z m-140 -28 c21 -17 22 -20 7 -20 -17 0 -47 22 -47 34 0 11 15 6 40
-14z m-906 -6 c9 -23 8 -24 -14 -24 -19 0 -27 20 -13 33 11 11 20 8 27 -9z
m95 -11 c9 -17 11 -17 24 1 25 35 72 4 48 -33 -6 -10 -13 -11 -29 -2 -14 7
-23 8 -27 1 -10 -17 -51 -11 -69 9 -10 11 -15 25 -11 30 10 17 53 13 64 -6z
m374 -40 c-3 -6 -11 -9 -19 -6 -17 6 -17 8 -2 36 11 21 11 21 18 2 4 -11 5
-25 3 -32z m147 -13 c0 -13 -7 -20 -20 -20 -23 0 -35 22 -26 45 8 22 46 1 46
-25z m-230 10 c0 -11 -4 -20 -10 -20 -5 0 -10 9 -10 20 0 11 5 20 10 20 6 0
10 -9 10 -20z m-150 -5 c0 -8 -4 -15 -10 -15 -5 0 -10 7 -10 15 0 8 5 15 10
15 6 0 10 -7 10 -15z m477 -31 c17 -5 28 -1 38 12 13 18 14 18 29 -1 8 -11 10
-21 5 -23 -5 -2 -9 -12 -9 -23 0 -25 -15 -24 -40 1 -11 11 -31 20 -45 20 -22
0 -25 4 -24 33 0 30 1 31 11 9 6 -12 22 -25 35 -28z m996 -3 c15 -6 27 -17 27
-25 0 -21 -31 -28 -50 -11 -24 22 -39 19 -46 -11 -6 -24 -8 -25 -17 -9 -7 14
-6 21 7 30 9 7 16 21 16 32 0 28 12 37 26 19 6 -8 23 -20 37 -25z m-153 -10
c0 -24 -26 -45 -45 -37 -14 5 -13 10 6 35 23 32 39 32 39 2z m261 -2 c13 -25
4 -39 -27 -39 -29 0 -40 21 -25 49 13 23 36 19 52 -10z m-1766 11 c3 -5 3 -15
-1 -21 -6 -11 -23 6 -24 24 0 10 18 9 25 -3z m1380 -10 c3 -11 11 -20 18 -20
8 0 8 -3 -1 -12 -8 -8 -15 -8 -26 1 -9 8 -27 10 -46 6 -26 -6 -30 -4 -30 14 0
19 7 22 67 30 6 0 15 -8 18 -19z m1344 -2 c11 -29 6 -37 -19 -31 -25 7 -32 17
-24 37 9 23 33 20 43 -6z m-3719 -13 c0 -14 -4 -25 -10 -25 -11 0 -14 33 -3
43 11 11 13 8 13 -18z m2140 -1 c0 -8 -7 -14 -15 -14 -15 0 -21 21 -9 33 10 9
24 -2 24 -19z m1499 -37 c-17 -37 -29 -34 -29 6 0 41 9 52 27 34 11 -11 12
-19 2 -40z m-2549 39 c0 -15 -14 -35 -21 -30 -15 9 -10 34 6 34 8 0 15 -2 15
-4z m1740 -26 c0 -10 -4 -21 -9 -25 -12 -7 -25 31 -16 45 9 15 25 2 25 -20z
m64 14 c10 -26 7 -34 -14 -34 -15 0 -20 7 -20 25 0 28 24 34 34 9z m957 -13
c7 -18 6 -22 -9 -19 -9 2 -19 14 -20 27 -5 30 18 24 29 -8z m-3665 -17 c-5
-13 -10 -14 -18 -6 -6 6 -8 18 -4 28 5 13 10 14 18 6 6 -6 8 -18 4 -28z m3222
24 c-3 -7 -11 -13 -18 -13 -7 0 -15 6 -17 13 -3 7 4 12 17 12 13 0 20 -5 18
-12z m-146 -38 c5 0 20 7 33 16 36 23 49 8 23 -27 -27 -36 -32 -36 -75 -3 -29
22 -32 28 -21 41 11 13 13 13 22 -6 5 -12 13 -21 18 -21z m258 30 c8 -5 11
-12 8 -16 -10 -9 -38 3 -38 16 0 12 10 13 30 0z m445 -47 l-8 -28 -8 29 c-9
33 -2 53 13 38 6 -6 7 -22 3 -39z m-2189 12 c7 -29 1 -41 -15 -30 -14 8 -14
55 -1 55 5 0 12 -11 16 -25z m1384 0 c0 -26 -14 -33 -25 -15 -9 14 1 40 15 40
5 0 10 -11 10 -25z m868 -31 c-2 -24 -5 -44 -8 -44 -13 0 -28 75 -18 87 18 22
28 4 26 -43z m242 31 c0 -8 -6 -18 -13 -22 -8 -4 -16 -16 -20 -25 -7 -20 -15
-22 -37 -8 -12 8 -9 15 20 43 35 34 50 37 50 12z m-3794 -40 c-20 -36 -46 -47
-46 -20 0 9 10 29 22 45 31 42 49 22 24 -25z m-221 28 c11 -15 15 -15 29 -4
14 12 16 10 16 -13 0 -21 5 -26 25 -26 18 0 25 -5 25 -20 0 -16 -7 -20 -30
-20 -19 0 -30 5 -30 14 0 24 -20 29 -40 11 -22 -20 -53 -16 -58 6 -2 14 35 68
47 69 2 0 9 -8 16 -17z m159 8 c7 -11 -49 -35 -63 -26 -6 3 -11 13 -11 21 0
16 65 21 74 5z m496 -1 c0 -5 -7 -10 -15 -10 -8 0 -15 5 -15 10 0 6 7 10 15
10 8 0 15 -4 15 -10z m3190 -13 c0 -21 -12 -28 -27 -16 -19 16 -16 29 7 29 11
0 20 -6 20 -13z m-200 -22 c0 -8 -4 -15 -10 -15 -5 0 -10 7 -10 15 0 8 5 15
10 15 6 0 10 -7 10 -15z m-3745 -25 c-5 -8 -11 -8 -17 -2 -6 6 -7 16 -3 22 5
8 11 8 17 2 6 -6 7 -16 3 -22z m525 -6 c0 -8 -9 -14 -20 -14 -19 0 -28 28 -13
43 9 9 33 -12 33 -29z m138 -11 c-4 -33 -24 -41 -33 -14 -8 25 1 41 21 41 11
0 14 -8 12 -27z m382 12 c0 -8 -6 -15 -14 -15 -20 0 -29 17 -14 23 22 9 28 7
28 -8z m903 9 c3 -4 2 -16 -4 -26 -13 -24 -35 -9 -26 16 7 17 19 21 30 10z
m247 -9 c0 -16 -45 -21 -54 -6 -8 12 4 21 31 21 14 0 23 -6 23 -15z m90 0 c13
-16 6 -65 -10 -65 -10 0 -40 52 -40 70 0 15 36 12 50 -5z m94 -1 c11 -29 6
-44 -14 -44 -16 0 -20 7 -20 30 0 32 23 42 34 14z m2154 -11 c2 -15 14 -23 40
-29 41 -8 40 -8 65 1 13 5 17 2 17 -13 0 -18 -7 -20 -60 -21 -47 0 -62 3 -67
16 -6 14 -8 14 -20 -3 -12 -16 -15 -17 -23 -4 -14 22 -12 40 5 46 8 4 15 13
15 21 0 22 25 10 28 -14z m409 -20 c-4 -17 -4 -17 -12 0 -4 9 -4 25 0 35 8 16
8 16 12 0 3 -10 3 -26 0 -35z m-2466 11 c10 -13 10 -17 -2 -25 -18 -12 -26
-11 -34 1 -8 13 1 40 13 40 5 0 15 -7 23 -16z m270 5 c26 -13 16 -28 -15 -22
-13 3 -27 0 -30 -6 -10 -15 -26 -14 -26 2 0 8 10 19 23 25 28 14 25 14 48 1z
m-2171 -14 c0 -8 -7 -15 -15 -15 -8 0 -15 7 -15 15 0 8 7 15 15 15 8 0 15 -7
15 -15z m148 -2 c-4 -22 -22 -20 -26 1 -2 10 3 16 13 16 10 0 15 -7 13 -17z
m2880 6 c-2 -6 -8 -10 -13 -10 -5 0 -11 4 -13 10 -2 6 4 11 13 11 9 0 15 -5
13 -11z m434 -30 c10 -6 -18 -33 -44 -42 -10 -3 -19 0 -22 9 -10 26 -7 44 8
44 8 0 17 8 21 18 6 16 7 15 17 -3 6 -11 15 -23 20 -26z m138 26 c7 -8 9 -22
6 -31 -6 -15 -9 -15 -29 3 -12 11 -28 18 -34 16 -7 -3 -13 0 -13 5 0 6 10 13
23 15 12 2 25 5 28 6 4 0 12 -6 19 -14z m-4385 -14 c7 -18 -10 -38 -40 -45
-31 -8 -75 19 -75 45 0 15 8 18 55 16 36 -1 57 -7 60 -16z m4003 7 c-3 -7 -11
-13 -18 -13 -7 0 -15 6 -17 13 -3 7 4 12 17 12 13 0 20 -5 18 -12z m652 -27
c0 -43 -13 -59 -34 -42 -11 9 -11 17 2 46 21 46 32 44 32 -4z m-919 7 c-10
-27 -34 -30 -39 -6 -2 11 5 18 20 21 13 2 24 5 25 6 1 0 -1 -9 -6 -21z m-3575
-17 c5 -5 18 -11 29 -14 11 -3 1 -5 -22 -6 -40 -1 -52 7 -36 22 9 9 17 9 29
-2z m234 -12 c0 -5 -7 -9 -15 -9 -15 0 -20 12 -9 23 8 8 24 -1 24 -14z m1100
6 c0 -8 -4 -15 -10 -15 -5 0 -10 7 -10 15 0 8 5 15 10 15 6 0 10 -7 10 -15z
m3890 1 c0 -2 -7 -9 -15 -16 -12 -10 -15 -10 -15 4 0 9 7 16 15 16 8 0 15 -2
15 -4z m-3566 -22 c4 -9 4 -19 1 -22 -3 -3 -5 0 -5 6 0 7 -7 12 -15 12 -8 0
-15 5 -15 10 0 16 27 11 34 -6z m636 1 c0 -8 -4 -15 -10 -15 -5 0 -10 7 -10
15 0 8 5 15 10 15 6 0 10 -7 10 -15z m2978 4 c-5 -14 -21 -14 -26 0 -2 6 4 11
13 11 9 0 15 -5 13 -11z m87 1 c-8 -13 -35 -13 -35 0 0 6 9 10 21 10 11 0 17
-4 14 -10z m-5635 -31 c0 -20 -15 -26 -25 -9 -9 15 3 43 15 35 5 -3 10 -15 10
-26z m4075 6 c0 -13 -5 -19 -15 -16 -8 2 -28 7 -45 11 -29 7 -28 9 15 24 27 9
45 1 45 -19z m1724 -5 c-16 -11 -29 -4 -29 16 0 12 4 13 21 3 17 -9 19 -13 8
-19z m-1939 5 c0 -8 -4 -15 -10 -15 -5 0 -10 7 -10 15 0 8 5 15 10 15 6 0 10
-7 10 -15z"/>
<path d="M1994 665 c-9 -22 4 -35 37 -35 34 0 40 24 10 40 -27 14 -41 13 -47
-5z"/>
<path d="M2636 643 c-11 -11 -6 -23 8 -23 8 0 17 4 20 9 7 10 -19 23 -28 14z"/>
<path d="M675 630 c3 -5 13 -10 21 -10 8 0 14 5 14 10 0 6 -9 10 -21 10 -11 0
-17 -4 -14 -10z"/>
<path d="M2490 505 c0 -8 9 -15 20 -15 11 0 20 7 20 15 0 8 -9 15 -20 15 -11
0 -20 -7 -20 -15z"/>
<path d="M3240 495 c0 -4 6 -13 14 -21 8 -7 16 -19 18 -26 3 -7 12 -9 22 -5 9
4 14 11 11 17 -8 12 -65 43 -65 35z"/>
<path d="M3170 466 c0 -9 7 -16 16 -16 17 0 14 22 -4 28 -7 2 -12 -3 -12 -12z"/>
<path d="M3096 445 c-19 -28 -17 -30 19 -13 14 6 25 17 25 25 0 22 -27 15 -44
-12z"/>
<path d="M3367 464 c-13 -14 -7 -22 16 -21 12 0 29 -2 37 -4 9 -2 15 2 15 11
0 16 -55 27 -68 14z"/>
<path d="M6902 116 c2 -16 9 -20 28 -18 14 2 59 5 100 7 41 2 78 4 83 4 4 1 7
8 7 17 0 13 -16 15 -110 13 -106 -2 -111 -3 -108 -23z"/>
<path d="M1541 36 c-10 -12 -8 -17 8 -25 11 -6 32 -11 47 -11 l27 0 -23 25
c-27 28 -42 31 -59 11z"/>
<path d="M6640 41 c0 -33 13 -41 71 -41 46 0 59 3 59 15 0 18 -8 21 -77 30
-31 3 -53 2 -53 -4z"/>
<path d="M6790 20 c0 -19 7 -20 106 -20 117 0 137 16 23 18 -40 0 -77 6 -83
12 -18 18 -46 12 -46 -10z"/>
</g>
</svg>
